<?xml version="1.0" standalone="no"?>
<!DOCTYPE svg PUBLIC "-//W3C//DTD SVG 20010904//EN"
 "http://www.w3.org/TR/2001/REC-SVG-20010904/DTD/svg10.dtd">
<svg version="1.0" xmlns="http://www.w3.org/2000/svg"
 width="3000.000000pt" height="2000.000000pt" viewBox="0 0 3000.000000 2000.000000"
 preserveAspectRatio="xMidYMid meet">
<metadata>
Created by potrace 1.16, written by Peter Selinger 2001-2019
</metadata>
<g transform="translate(0.000000,2000.000000) scale(0.100000,-0.100000)"
fill="#000000" stroke="none">
<path d="M14645 18114 c-100 -15 -206 -38 -281 -60 -237 -68 -491 -212 -671
-378 -57 -52 -64 -56 -85 -45 -82 44 -360 71 -509 50 -403 -58 -706 -356 -726
-713 l-6 -98 -46 -26 c-267 -154 -467 -414 -529 -689 -23 -104 -20 -308 6
-407 41 -151 114 -287 210 -390 43 -46 44 -48 20 -48 -48 0 -164 -68 -218
-127 -92 -100 -133 -212 -132 -358 0 -112 20 -195 72 -302 l40 -81 -31 -94
c-82 -241 -32 -486 132 -649 76 -76 148 -117 219 -126 l49 -6 6 -56 c35 -315
80 -554 190 -991 98 -388 167 -628 274 -950 146 -437 241 -658 372 -865 l41
-65 141 -45 c327 -105 546 -154 942 -210 424 -59 517 -68 765 -68 337 -1 627
41 890 129 156 52 475 206 536 258 43 37 82 109 176 325 28 64 55 122 61 129
16 20 116 68 178 86 64 18 170 33 294 41 363 25 566 103 748 290 219 224 337
544 452 1220 51 303 83 587 110 990 3 44 7 243 10 442 7 514 -8 650 -89 769
-123 182 -433 225 -850 119 -98 -26 -215 -59 -259 -76 -45 -16 -82 -29 -84
-29 -14 0 6 31 51 82 67 74 121 173 142 264 23 101 15 256 -19 352 -29 82
-128 256 -156 274 -17 11 -17 14 6 72 114 278 104 627 -24 879 -100 199 -287
377 -477 456 -185 76 -448 84 -685 20 -40 -11 -75 -18 -76 -17 -1 2 -14 39
-29 83 -123 353 -338 547 -691 621 -69 14 -398 27 -460 18z m372 -130 c127
-19 263 -65 353 -118 194 -114 354 -297 398 -457 l10 -37 -49 -23 c-27 -12
-50 -21 -52 -18 -2 2 -17 24 -34 49 -42 62 -112 140 -126 140 -6 0 3 -15 20
-32 17 -18 52 -62 77 -97 l47 -65 -23 -18 c-13 -9 -36 -23 -51 -29 -27 -11
-31 -9 -80 38 -154 150 -394 263 -585 277 l-67 5 73 -14 c106 -20 226 -61 313
-106 83 -43 228 -155 266 -205 l23 -31 -40 -27 c-22 -14 -43 -26 -48 -26 -5 0
-35 21 -68 46 -93 73 -295 164 -362 164 -25 0 -2 -16 43 -30 76 -24 200 -89
277 -144 l77 -56 -137 -138 c-76 -75 -144 -149 -151 -164 -24 -47 -1 -45 37 2
134 165 294 299 456 379 190 94 325 126 515 119 128 -5 180 -17 291 -67 l45
-20 -50 5 c-98 11 -285 -26 -465 -93 -102 -37 -302 -132 -335 -158 -11 -9 18
3 64 25 369 181 694 227 912 128 l51 -23 -129 -1 c-124 -1 -203 -13 -331 -50
-29 -9 -51 -18 -49 -21 3 -2 45 0 94 6 272 34 486 -3 610 -105 88 -72 187
-272 225 -454 25 -122 21 -305 -11 -425 -44 -168 -161 -360 -292 -478 -80 -74
-219 -166 -304 -203 -89 -39 -83 -50 7 -13 147 61 247 127 371 248 l68 66 19
-25 c10 -14 26 -49 36 -79 37 -118 -8 -258 -121 -380 -41 -45 -50 -58 -28 -43
51 36 122 122 153 187 56 118 58 250 5 354 l-22 45 26 37 c14 21 29 38 33 39
4 0 19 -22 33 -50 158 -312 -49 -693 -431 -790 -43 -11 -100 -20 -128 -20 -37
0 -47 -3 -36 -10 20 -13 117 -3 210 21 104 28 203 83 282 157 114 108 168 215
189 379 14 110 -4 231 -50 330 -20 41 -28 70 -22 76 19 19 89 -134 121 -268
59 -243 23 -395 -127 -544 -124 -123 -272 -195 -480 -233 -157 -28 -555 -31
-703 -5 -170 29 -316 90 -437 182 -58 43 -163 150 -163 166 0 3 12 27 26 53
l26 47 42 -34 c109 -90 381 -247 425 -247 9 0 -20 20 -64 43 -174 94 -375 247
-375 286 0 9 20 60 27 70 1 2 30 -17 62 -43 63 -49 158 -103 167 -94 3 3 -23
26 -58 51 -35 25 -83 66 -107 91 l-44 45 11 70 c26 152 11 251 -58 398 -38 82
-142 209 -161 197 -4 -2 16 -40 45 -83 78 -114 91 -160 90 -311 -1 -148 -22
-239 -84 -362 -54 -108 -122 -198 -222 -294 -192 -184 -417 -300 -713 -366
-67 -15 -142 -21 -290 -25 -178 -4 -211 -3 -304 17 -129 26 -204 56 -285 114
-95 67 -92 62 -68 169 12 50 24 112 27 136 3 24 7 46 9 48 2 3 22 -7 43 -20
222 -140 455 -172 693 -95 76 24 181 76 229 112 40 30 33 36 -7 7 -53 -37
-172 -91 -249 -113 -106 -31 -291 -30 -408 1 -102 27 -230 90 -273 134 -29 30
-33 42 -42 118 -12 109 -49 269 -61 269 -6 0 -8 -8 -5 -17 12 -44 27 -146 32
-233 23 -351 -188 -700 -519 -860 -113 -54 -209 -78 -376 -94 -142 -13 -166
-21 -154 -52 3 -7 15 -16 26 -20 12 -4 24 -10 27 -14 3 -5 2 -64 -1 -132 -7
-135 -28 -214 -74 -274 -33 -43 -16 -45 21 -1 58 69 86 156 101 322 l7 80 7
-55 c30 -232 -14 -378 -143 -480 -57 -46 -51 -55 8 -12 133 97 194 234 194
440 0 93 2 102 19 102 16 0 19 -12 25 -97 15 -228 -35 -375 -169 -492 -89 -78
-203 -102 -292 -61 -50 22 -134 98 -175 157 -90 131 -112 342 -52 493 l16 39
22 -26 c22 -25 22 -28 8 -72 -8 -26 -15 -88 -15 -141 -1 -110 24 -209 72 -280
32 -48 93 -90 131 -90 25 1 25 1 -5 17 -142 74 -206 271 -155 476 9 35 17 47
31 47 19 0 39 28 39 55 0 9 -24 45 -54 78 -111 127 -165 237 -181 368 -20 161
78 345 222 416 66 32 77 26 23 -12 -79 -55 -146 -144 -164 -217 -10 -41 8 -34
23 10 18 49 139 167 220 214 35 21 68 35 73 32 4 -3 -18 -25 -49 -48 -102 -75
-163 -156 -204 -272 -28 -78 -31 -215 -6 -298 23 -74 30 -69 11 9 -39 170 10
347 130 465 63 61 99 84 164 104 69 20 89 32 95 57 5 19 -11 39 -89 112 -191
181 -274 370 -274 622 0 246 89 454 275 641 131 133 283 227 478 295 70 25 90
43 35 32 -51 -9 -188 -53 -245 -78 -28 -13 -53 -21 -55 -19 -8 7 12 138 28
188 132 404 532 614 989 520 39 -8 92 -22 119 -30 l48 -16 -24 -24 c-23 -23
-26 -24 -98 -14 -253 33 -502 -12 -671 -122 -63 -40 -195 -166 -184 -176 2 -3
23 15 44 40 86 97 259 192 409 224 88 18 237 18 337 -1 112 -21 110 -20 87
-52 -19 -26 -20 -26 -158 -29 -78 -1 -163 -8 -194 -16 -53 -14 -50 -14 112
-13 109 0 171 -4 178 -11 8 -8 3 -24 -18 -60 -43 -74 -103 -206 -99 -218 2 -6
16 13 31 42 192 377 535 678 919 807 234 78 512 99 774 59z m2873 -2914 c115
-25 131 -32 118 -48 -11 -13 -10 -14 7 -4 17 9 30 5 68 -19 29 -18 45 -34 41
-41 -4 -6 -3 -8 4 -5 14 10 61 -48 87 -108 39 -87 49 -209 49 -620 1 -452 -19
-750 -74 -1155 -29 -209 -82 -504 -92 -508 -4 -2 -6 -7 -3 -12 5 -8 -11 -101
-22 -130 -4 -8 -6 -18 -5 -21 3 -16 -60 -244 -92 -333 -20 -55 -36 -101 -36
-103 0 -2 -5 -1 -12 3 -7 4 -8 3 -4 -5 8 -12 -71 -181 -84 -181 -4 0 -10 -9
-13 -21 -4 -13 -10 -18 -18 -13 -8 5 -10 3 -4 -6 5 -9 -2 -22 -21 -38 -16 -13
-22 -21 -14 -16 28 15 -55 -73 -117 -126 -35 -28 -63 -49 -63 -46 0 3 -12 -6
-27 -20 -14 -13 -28 -22 -31 -20 -2 3 -11 -2 -20 -10 -8 -9 -23 -13 -34 -11
-10 3 -16 1 -13 -3 7 -11 -61 -33 -75 -25 -5 3 -10 2 -10 -3 0 -10 -138 -34
-175 -31 -11 1 -54 -1 -95 -4 -41 -4 -153 -8 -247 -9 -95 -2 -173 -6 -173 -10
0 -5 -11 -8 -25 -8 -26 0 -31 14 -15 40 7 12 15 13 40 3 16 -6 28 -7 24 -2 -3
5 22 9 58 9 148 0 449 21 528 36 46 8 111 27 144 40 47 19 62 21 69 12 6 -10
7 -9 4 2 -2 9 14 27 45 48 47 32 129 113 137 136 2 6 7 13 10 16 11 8 81 131
81 141 0 5 5 9 10 9 6 0 9 3 9 8 -4 21 2 32 13 26 8 -5 9 -2 4 11 -4 10 0 28
9 41 25 39 84 230 110 358 27 134 22 183 -7 60 -10 -43 -21 -86 -25 -94 -3 -8
-7 -21 -9 -29 -13 -67 -85 -252 -95 -245 -4 2 -7 -4 -7 -13 2 -33 -82 -189
-100 -186 -6 2 -9 -3 -6 -10 6 -18 -35 -69 -48 -61 -7 4 -8 2 -4 -4 8 -14 -31
-55 -44 -47 -5 3 -8 0 -5 -7 9 -27 -198 -139 -226 -123 -5 4 -15 2 -22 -4 -26
-21 -150 -33 -399 -38 -225 -5 -258 -4 -258 10 0 24 21 35 93 48 85 16 84 35
-1 31 -65 -3 -69 -1 -53 41 8 20 17 25 48 25 21 0 51 5 66 11 15 6 31 10 35 9
4 -1 25 3 47 9 81 21 216 43 227 37 6 -4 8 -3 5 3 -4 6 11 15 33 22 72 21 255
119 304 162 38 34 50 39 57 28 5 -9 9 -10 9 -2 0 6 -4 14 -9 18 -5 3 8 34 29
69 22 36 42 76 46 90 3 14 10 24 14 21 5 -3 6 4 3 15 -3 12 0 20 6 20 7 0 9 4
6 10 -6 10 22 120 35 134 5 5 6 15 3 22 -3 8 0 14 6 14 6 0 8 6 6 13 -7 16 69
320 77 311 4 -3 4 4 1 17 -5 17 -3 20 7 14 9 -5 11 -4 6 4 -8 12 13 121 23
121 3 0 7 10 7 23 1 12 6 49 12 82 14 75 24 187 33 365 15 281 30 720 35 975
5 319 5 331 -15 369 -11 21 -18 43 -14 49 3 6 1 7 -4 4 -13 -8 -41 32 -38 54
2 11 -4 15 -21 13 -13 -1 -43 7 -66 19 -34 17 -62 21 -133 22 -102 0 -157 -6
-166 -18 -4 -5 -18 -10 -32 -10 -14 -1 -23 -4 -21 -6 8 -8 -36 -32 -48 -25 -7
4 -8 3 -4 -4 4 -7 3 -12 -3 -12 -5 0 -33 -19 -63 -42 -29 -24 -56 -43 -60 -43
-3 0 -10 -4 -15 -9 -5 -5 -3 -6 5 -2 17 10 15 -9 -4 -25 -8 -7 -22 -25 -30
-41 -9 -17 -20 -26 -26 -22 -6 4 -8 3 -5 -3 3 -5 -11 -45 -33 -87 l-38 -77 0
106 0 107 47 49 c26 27 50 49 53 49 3 0 20 13 37 29 40 38 156 103 186 105 30
1 27 19 -5 27 -14 3 -24 10 -22 17 3 17 -3 15 -19 -5 -8 -10 -9 -14 -2 -10 6
4 14 3 17 -2 3 -5 -9 -12 -27 -15 -17 -3 -56 -17 -85 -31 -29 -13 -55 -24 -57
-25 -3 0 -14 -9 -25 -20 -12 -12 -26 -18 -32 -14 -7 4 -8 3 -4 -4 4 -8 -3 -16
-18 -22 -14 -5 -26 -14 -26 -20 0 -5 -5 -10 -10 -10 -6 0 -9 19 -7 45 2 25 -1
45 -6 45 -16 0 24 39 46 46 12 4 27 13 35 21 8 8 20 12 27 9 7 -2 21 4 30 14
21 23 123 63 142 56 7 -3 13 -2 13 2 0 10 128 30 244 38 78 6 87 9 71 21 -36
26 -215 10 -365 -32 -120 -34 -212 -62 -232 -70 -13 -5 -18 -2 -18 11 0 14 25
31 93 62 50 24 102 45 114 45 11 1 19 5 17 8 -3 5 230 58 316 72 51 9 247 6
290 -3z m-1064 -457 c-5 -180 -4 -274 2 -268 11 12 28 109 38 215 3 41 10 102
14 135 11 92 12 -200 0 -420 -5 -99 -12 -241 -15 -315 -3 -74 -8 -154 -11
-177 -3 -23 -1 -44 4 -47 11 -7 19 26 28 118 4 41 11 63 17 59 6 -3 7 -1 3 5
-4 6 2 94 13 194 21 189 40 462 44 628 2 52 4 -38 5 -200 1 -162 -3 -340 -8
-395 -5 -55 -12 -140 -15 -190 -3 -49 -17 -218 -30 -375 -14 -157 -28 -316
-31 -355 -3 -38 -8 -77 -11 -85 -2 -8 -6 -58 -9 -110 -2 -52 -7 -106 -11 -120
-3 -14 -5 -33 -4 -43 6 -43 -55 -507 -92 -712 -29 -154 -87 -366 -98 -359 -5
3 -6 -2 -3 -10 6 -16 -32 -131 -107 -326 -68 -176 -98 -247 -99 -230 0 23 43
140 52 140 4 0 5 7 2 15 -4 8 -1 15 6 15 6 0 9 4 6 9 -8 12 59 203 68 194 4
-4 4 0 1 8 -3 9 -1 29 6 45 6 16 13 39 15 52 1 13 8 30 15 38 9 11 8 14 -9 14
-16 0 -24 -12 -37 -50 -9 -27 -21 -52 -26 -56 -5 -3 -8 -8 -5 -12 2 -4 -17
-68 -43 -142 -33 -95 -50 -134 -60 -132 -12 3 -12 0 -2 -12 9 -11 8 -23 -7
-58 -11 -23 -25 -62 -31 -86 -8 -27 -16 -40 -23 -36 -7 5 -8 2 -3 -5 7 -13
-19 -95 -38 -120 -6 -7 -12 -19 -13 -26 -1 -7 -7 -21 -14 -32 -11 -17 -11 -17
-6 0 4 11 2 16 -5 12 -5 -4 -9 -15 -7 -25 2 -11 -6 -26 -17 -35 -11 -9 -13
-13 -5 -9 8 4 -7 -16 -34 -44 -28 -29 -51 -50 -53 -48 -2 2 -17 -9 -34 -25
-25 -24 -256 -144 -314 -163 -15 -6 -16 -9 -6 -15 35 -22 322 105 400 177 41
37 46 39 58 24 7 -9 13 -20 13 -24 0 -4 -28 -21 -62 -38 -34 -17 -68 -36 -75
-41 -7 -6 -18 -7 -24 -3 -7 4 -9 3 -6 -3 4 -6 -9 -17 -31 -26 -20 -8 -71 -31
-112 -50 -109 -50 -262 -109 -287 -111 -12 0 -19 -3 -17 -6 11 -10 -71 -27
-84 -17 -9 7 -12 7 -10 -2 2 -8 -14 -19 -37 -28 -68 -24 -265 -71 -365 -87
-116 -18 -426 -39 -441 -30 -7 4 -47 6 -89 5 -43 -1 -81 2 -84 7 -3 5 -16 7
-30 5 -47 -9 -440 59 -512 88 -16 7 -33 11 -38 10 -4 -1 -14 3 -20 9 -7 5 -15
8 -17 6 -2 -3 -45 6 -94 20 -50 14 -100 27 -112 30 -12 2 -33 8 -45 13 -13 5
-27 9 -33 10 -5 1 -48 13 -95 27 -183 55 -279 88 -275 95 3 4 -3 5 -13 2 -11
-2 -25 1 -33 9 -8 7 -23 14 -34 16 -11 1 -27 4 -35 7 -8 2 -18 4 -21 4 -6 1
-93 135 -141 219 -15 26 -25 53 -23 60 3 7 0 10 -5 7 -12 -8 -33 43 -24 57 4
6 3 8 -3 5 -13 -8 -36 41 -27 55 4 6 2 8 -3 5 -13 -8 -47 78 -37 94 4 7 3 9
-3 6 -6 -4 -27 38 -51 101 -60 156 -121 332 -115 332 3 0 1 6 -5 13 -16 19
-81 210 -76 219 3 5 1 8 -4 8 -5 0 -15 21 -22 48 -6 26 -16 56 -22 67 -5 12
-10 27 -12 35 -2 8 -8 28 -15 43 -6 16 -9 32 -6 37 3 5 1 10 -3 12 -13 4 -54
137 -47 148 4 6 1 10 -5 10 -7 0 -10 6 -7 14 3 8 1 16 -4 18 -5 2 -11 15 -13
29 -1 13 -5 29 -8 35 -12 18 -68 217 -63 222 2 2 -2 16 -9 31 -26 50 -92 330
-156 656 -17 88 -35 178 -40 199 -10 44 -6 56 16 56 8 0 15 -10 15 -25 2 -27
3 -33 12 -55 3 -8 24 -91 47 -185 76 -313 192 -780 196 -784 13 -14 13 16 1
75 -62 288 -77 369 -73 381 4 9 1 11 -6 7 -7 -5 -9 0 -6 14 3 12 3 22 -1 24
-4 2 -19 66 -35 143 -15 77 -30 149 -33 160 -3 13 -2 17 5 10 5 -5 21 -61 35
-122 35 -148 57 -226 65 -218 8 8 9 114 1 109 -9 -5 -21 75 -14 87 4 5 2 9 -4
9 -8 0 -21 51 -27 105 -1 11 -4 27 -7 35 -5 13 -57 272 -57 285 0 3 5 5 12 5
6 0 8 -3 5 -6 -3 -4 -2 -14 2 -23 15 -27 101 -372 96 -381 -3 -5 -1 -10 3 -12
5 -1 23 -57 40 -123 17 -66 40 -155 52 -198 11 -43 18 -83 14 -89 -4 -6 -3 -8
3 -5 12 7 36 -90 26 -105 -4 -7 -1 -8 7 -3 10 6 12 3 8 -13 -4 -12 -2 -22 3
-22 6 0 9 -6 8 -12 -1 -7 1 -20 4 -28 15 -38 27 -102 21 -113 -4 -6 -3 -8 1
-4 11 9 57 -152 50 -171 -3 -7 -1 -11 3 -8 6 3 55 -163 66 -225 1 -8 14 -52
28 -99 28 -89 59 -204 63 -230 1 -8 5 -22 8 -30 3 -8 26 -85 50 -170 25 -85
52 -172 61 -194 9 -21 13 -43 9 -49 -3 -5 -1 -7 4 -4 6 4 14 -5 18 -20 3 -14
19 -45 34 -67 25 -37 27 -43 15 -62 -12 -18 -12 -21 0 -21 8 0 12 6 9 14 -3 7
-1 13 5 13 16 0 34 -28 26 -41 -4 -7 -3 -9 3 -6 15 9 57 -39 48 -54 -5 -7 -4
-10 3 -5 6 3 22 -12 36 -36 14 -24 26 -40 26 -36 0 5 19 -11 43 -33 23 -23 56
-53 74 -66 21 -16 30 -31 28 -44 -2 -11 0 -17 6 -14 5 4 7 11 4 16 -4 5 -2 9
3 9 17 0 22 -13 9 -29 -11 -14 -10 -14 6 -2 12 10 21 11 25 4 4 -6 17 -13 30
-17 12 -4 37 -19 54 -34 18 -15 29 -21 25 -15 -6 9 -3 11 7 7 9 -3 13 -11 9
-17 -3 -6 -1 -7 6 -3 7 5 35 -1 64 -12 29 -11 86 -28 127 -38 41 -9 79 -19 84
-22 5 -3 21 -6 35 -8 14 -1 69 -9 121 -18 52 -9 208 -27 345 -42 352 -36 685
-36 940 1 121 18 325 77 448 129 20 9 37 13 37 9 0 -5 4 -3 8 2 14 21 78 52
105 51 16 -1 23 2 17 8 -12 12 96 77 118 70 12 -4 13 -3 4 3 -9 7 3 21 43 51
76 55 165 138 165 152 0 6 5 8 10 5 6 -3 10 -2 10 3 0 18 73 102 83 95 6 -3 7
-1 3 5 -4 7 4 27 17 44 13 18 42 67 63 108 21 41 43 78 47 81 5 3 8 9 8 13 -3
20 0 26 11 20 6 -4 8 -3 5 3 -7 10 26 126 34 119 3 -3 5 3 6 12 0 9 17 80 37
157 19 77 36 154 36 170 0 17 4 25 8 18 4 -6 7 10 8 35 0 26 10 121 22 212 25
190 51 443 83 820 13 146 25 267 28 270 4 3 6 30 7 60 1 61 4 113 35 475 14
171 22 377 26 650 5 376 8 414 32 415 2 0 1 -125 -3 -277z m857 128 c26 -10
83 -110 111 -195 28 -82 56 -302 56 -436 0 -136 -10 -236 -64 -640 -19 -146
-47 -362 -61 -480 -28 -229 -51 -356 -120 -650 -70 -299 -106 -372 -210 -427
-53 -28 -78 -33 -222 -49 -141 -15 -174 -16 -267 -4 l-106 13 6 26 c3 14 14
60 25 101 54 221 104 567 149 1037 31 322 62 574 105 843 23 145 82 356 148
530 56 147 168 280 269 319 56 21 141 27 181 12z m-1623 -70 c0 -9 -61 -41
-79 -41 -6 0 -46 -12 -88 -27 -156 -53 -247 -119 -257 -186 -28 -192 -38 -312
-46 -542 -6 -148 -15 -351 -20 -450 -6 -99 -11 -252 -12 -340 l-1 -160 -8 225
c-4 124 -9 296 -11 382 -2 87 -6 158 -10 158 -5 0 -8 75 -8 168 0 196 -15 432
-30 484 -21 72 -71 130 -149 172 -61 32 -92 42 -190 56 -97 15 -187 37 -159
39 4 1 81 11 170 22 177 23 452 30 618 16 82 -8 103 -6 155 11 64 21 125 28
125 13z m515 -1 c18 -7 25 -15 21 -26 -3 -8 -2 -13 3 -10 15 9 40 -87 52 -194
12 -107 2 -324 -26 -565 -15 -132 -34 -360 -65 -790 -25 -342 -44 -505 -74
-655 -32 -156 -84 -362 -117 -465 -5 -16 -19 -76 -30 -132 -24 -126 -67 -236
-93 -241 -16 -4 -18 0 -12 32 4 20 16 57 27 82 10 25 19 54 19 64 0 10 5 22
10 25 6 3 10 14 10 24 0 10 9 44 19 77 11 32 21 68 23 79 2 11 6 22 9 25 9 8
75 266 85 335 2 17 7 41 10 55 4 14 17 86 29 160 13 74 24 137 26 140 1 3 3
19 4 35 1 17 7 86 14 155 6 69 15 188 21 265 6 77 17 226 25 330 26 344 30
437 30 750 -1 310 -10 409 -38 427 -7 4 -41 8 -77 9 -48 1 -58 3 -40 9 36 12
105 12 135 0z m-1990 -105 c-13 -6 -245 -45 -320 -56 -240 -32 -278 -53 -294
-166 -47 -324 -46 -887 0 -1248 6 -44 12 -98 14 -120 6 -54 31 -231 49 -335 8
-47 22 -137 31 -200 9 -63 20 -140 25 -170 9 -56 18 -123 49 -372 16 -129 14
-168 -9 -168 -5 0 -14 26 -20 58 -6 31 -15 73 -20 92 -16 66 -64 341 -75 428
-9 74 -44 300 -64 417 -24 139 -57 396 -66 505 -3 41 -10 118 -15 170 -6 52
-12 160 -14 240 -3 80 -10 208 -17 285 -13 156 -8 410 9 440 6 11 17 36 26 56
24 55 76 95 138 108 44 9 252 24 413 30 21 1 41 4 44 6 2 3 32 5 65 4 34 0 57
-2 51 -4z m-928 -57 c48 -32 78 -85 69 -121 -7 -30 -18 -34 -39 -12 -33 33
-95 48 -170 41 -158 -14 -317 -19 -317 -9 0 6 -19 9 -47 6 l-48 -4 50 19 c28
11 68 27 90 36 22 10 67 24 100 32 198 50 251 52 312 12z m-922 -909 c8 -41
28 -148 45 -239 17 -91 37 -199 45 -240 42 -220 65 -349 69 -385 8 -69 26
-198 36 -250 10 -57 12 -91 5 -83 -9 8 -113 573 -140 758 -9 58 -29 184 -45
280 -17 96 -33 191 -36 210 -11 65 6 24 21 -51z m-10 -567 c4 -31 15 -88 25
-127 10 -38 27 -115 39 -170 12 -55 28 -122 35 -150 8 -27 29 -104 46 -170 36
-136 74 -264 185 -615 26 -80 50 -154 55 -165 5 -11 23 -56 41 -100 18 -44 43
-97 56 -117 13 -21 23 -41 23 -45 0 -9 43 -60 98 -116 48 -51 243 -179 357
-237 114 -58 118 -61 108 -71 -10 -10 -106 11 -148 32 -17 9 -83 45 -148 80
-65 35 -127 68 -138 74 -10 5 -19 13 -19 17 0 5 -5 8 -11 8 -12 0 -23 9 -91
78 -26 26 -48 53 -48 60 0 7 -4 11 -8 8 -5 -3 -19 14 -31 37 -12 23 -31 58
-41 77 -18 34 -24 46 -69 158 -12 29 -19 58 -15 65 4 7 3 8 -1 4 -9 -8 -27 41
-44 118 -5 22 -23 90 -39 150 -16 61 -39 157 -51 215 -12 58 -27 129 -33 158
-6 30 -12 69 -12 87 -1 18 -3 31 -6 29 -6 -6 -37 128 -45 196 -4 30 -15 87
-26 125 -10 39 -21 93 -23 120 -3 28 -12 80 -20 115 -20 94 -26 141 -16 135 5
-3 12 -31 15 -63z m456 -223 c21 -30 21 -33 6 -58 -22 -37 -78 -57 -116 -41
-56 23 -44 95 19 117 54 18 67 16 91 -18z m2384 -249 c12 -37 -43 -573 -85
-835 -5 -33 -17 -114 -25 -180 -9 -66 -20 -136 -25 -155 -42 -160 -73 -266
-79 -270 -4 -3 -13 -21 -21 -40 -14 -35 -34 -66 -80 -128 -28 -38 -125 -109
-185 -135 l-40 -18 45 38 c204 171 262 319 366 938 33 199 83 617 85 715 0 26
22 90 30 90 4 0 10 -9 14 -20z m-872 -951 c35 -16 52 -79 37 -135 -9 -33 -20
-46 -45 -58 -111 -53 -188 38 -119 140 32 47 43 56 67 50 9 -2 15 0 11 5 -7
12 20 11 49 -2z m-480 -165 c20 -56 37 -107 37 -115 0 -8 6 -23 13 -34 7 -11
19 -45 26 -75 7 -30 16 -64 21 -75 5 -11 16 -47 25 -80 32 -114 88 -198 161
-241 24 -14 44 -29 44 -34 0 -14 -43 -19 -86 -11 -99 19 -194 119 -223 235
-20 82 -41 209 -41 256 0 25 -5 63 -10 85 -14 61 -24 212 -13 200 5 -5 26 -55
46 -111z m1987 39 c-1 -28 -43 -159 -55 -173 -8 -9 -15 -22 -15 -28 0 -7 -4
-12 -10 -12 -5 0 -10 -5 -10 -10 0 -6 -6 -18 -12 -26 -31 -36 -126 -131 -153
-152 -41 -32 -243 -132 -263 -131 -14 0 -14 2 -2 6 29 11 136 78 205 129 107
79 197 183 236 273 37 85 62 131 70 131 5 0 9 -3 9 -7z"/>
<path d="M14620 17799 c-615 -128 -1076 -532 -1194 -1047 -8 -34 -10 -60 -5
-56 5 3 9 13 9 22 0 40 57 196 106 292 165 323 462 566 849 696 155 51 264 73
408 81 119 6 148 13 111 27 -32 12 -192 4 -284 -15z"/>
<path d="M14033 17421 c-81 -45 -142 -92 -219 -173 -108 -112 -169 -212 -219
-361 -41 -123 -66 -312 -48 -375 12 -46 23 1 23 99 0 167 59 349 161 501 57
86 188 213 279 272 41 27 79 53 85 58 19 17 -12 7 -62 -21z"/>
<path d="M12437 16727 c-122 -68 -208 -165 -278 -310 -180 -378 -72 -861 227
-1012 65 -33 148 -55 165 -44 15 9 19 7 -61 34 -337 117 -489 573 -326 977 58
143 172 279 296 351 35 20 58 37 50 37 -8 0 -41 -15 -73 -33z"/>
<path d="M12419 16410 c-67 -68 -121 -164 -154 -270 -25 -83 -30 -221 -12
-308 14 -62 65 -198 72 -190 2 2 -10 43 -27 92 -81 242 -28 486 144 662 28 29
48 58 46 65 -3 9 -28 -9 -69 -51z"/>
<path d="M13142 15372 c-32 -281 -170 -496 -417 -650 -71 -45 -32 -40 44 6 82
48 180 138 237 217 55 78 127 229 148 311 17 66 22 214 7 214 -4 0 -13 -44
-19 -98z"/>
<path d="M14760 15260 c-230 -238 -757 -409 -1034 -335 -32 8 -61 14 -63 11
-2 -2 22 -14 54 -27 82 -33 290 -34 408 -1 204 55 370 124 486 203 68 45 178
146 211 192 33 46 6 28 -62 -43z"/>
<path d="M13134 15053 c-135 -231 -259 -358 -442 -448 -78 -38 -192 -75 -233
-75 -16 0 -29 -4 -29 -8 0 -11 95 3 170 24 74 21 203 86 269 136 122 92 249
244 315 375 40 80 43 93 22 93 -8 0 -40 -44 -72 -97z"/>
<path d="M17947 13855 c-7 -356 -31 -657 -73 -957 -5 -39 -4 -48 8 -48 11 0
18 24 27 98 6 53 16 129 21 167 6 39 10 96 10 128 -1 31 3 57 7 57 4 0 9 57
11 128 2 70 6 254 10 410 4 155 4 282 0 282 -3 0 -8 8 -10 18 -2 9 -7 -118
-11 -283z"/>
<path d="M17869 12783 c-2 -13 -6 -28 -8 -33 -2 -3 -4 -16 -5 -30 -6 -56 -60
-305 -67 -308 -4 -2 -6 -9 -3 -16 5 -14 -28 -169 -49 -229 -7 -20 -17 -34 -21
-30 -4 4 -4 0 -1 -9 3 -8 -1 -32 -9 -52 -24 -58 -105 -178 -116 -171 -6 3 -10
0 -10 -8 0 -19 -34 -49 -45 -40 -4 5 -5 3 -2 -3 4 -7 0 -17 -8 -24 -8 -7 -15
-10 -15 -7 0 3 -11 -5 -24 -18 -40 -40 -227 -123 -347 -155 -61 -16 -114 -28
-118 -28 -3 1 -16 -2 -29 -6 -23 -8 -27 -43 -5 -39 7 2 47 10 90 18 43 9 100
23 126 31 27 9 57 14 69 11 11 -3 17 -3 14 0 -3 4 35 26 85 49 49 24 110 57
134 73 32 22 46 26 55 17 8 -8 10 -7 5 7 -8 20 5 22 25 5 12 -11 12 -10 0 5
-12 16 -9 22 20 52 18 19 38 31 43 28 6 -3 7 -1 3 5 -3 6 2 17 12 24 11 7 20
16 21 20 5 24 14 37 22 32 5 -3 6 2 3 10 -3 9 -2 16 4 16 19 0 81 219 107 382
15 90 29 170 32 178 4 8 5 19 4 24 -1 5 5 55 14 113 8 57 15 106 15 108 0 8
-20 6 -21 -2z"/>
<path d="M12940 11319 c0 -5 -4 -7 -10 -4 -19 12 -10 -43 14 -91 14 -27 22
-52 20 -56 -3 -4 0 -8 6 -8 7 0 8 -6 0 -19 -7 -14 -7 -22 2 -27 6 -4 8 -3 4 4
-3 6 -2 13 4 17 5 3 10 1 10 -5 0 -25 121 -263 150 -297 32 -36 34 -56 3 -32
-16 13 -17 12 -4 -4 8 -10 20 -16 27 -13 15 6 205 -90 196 -99 -4 -3 2 -3 12
1 15 6 17 4 11 -6 -5 -9 -4 -11 3 -6 6 4 50 -7 97 -23 47 -17 139 -45 203 -61
64 -17 124 -34 132 -37 8 -3 23 -5 33 -4 9 1 17 -3 17 -9 0 -8 6 -7 21 1 18 9
19 13 8 25 -8 7 -32 16 -54 19 -53 9 -338 105 -346 117 -3 5 -10 10 -15 9 -22
-1 -53 12 -48 20 3 5 -3 6 -12 2 -12 -4 -15 -3 -10 5 4 7 2 10 -7 6 -20 -7
-189 76 -184 90 3 7 -4 18 -14 25 -11 6 -17 17 -13 23 5 7 3 8 -5 4 -9 -6 -8
-13 6 -29 l18 -22 -24 20 c-36 30 -82 96 -74 108 3 5 1 7 -4 4 -13 -8 -26 20
-16 36 3 7 3 9 -2 5 -4 -4 -25 27 -46 68 -43 83 -45 89 -27 78 7 -4 8 -3 4 5
-4 6 -11 9 -16 6 -11 -7 -33 51 -24 67 4 7 4 10 -1 6 -13 -12 -47 51 -40 73 4
10 4 19 1 19 -3 0 -6 -5 -6 -11z"/>
<path d="M16266 11033 c-19 -38 -70 -85 -87 -81 -7 2 -13 -4 -14 -14 0 -21
-74 -80 -89 -71 -6 3 -8 2 -3 -2 9 -11 -43 -46 -56 -38 -6 3 -7 2 -4 -4 8 -13
-41 -36 -55 -27 -6 4 -8 2 -4 -4 4 -7 -44 -35 -126 -76 -171 -83 -235 -108
-262 -101 -14 4 -17 3 -8 -3 10 -6 -16 -18 -85 -40 -240 -75 -379 -96 -615
-94 -144 1 -178 -1 -178 -12 0 -19 52 -25 220 -26 205 -2 377 29 605 106 61
20 118 37 128 36 10 0 15 4 11 10 -5 7 -1 9 9 5 10 -3 17 -3 17 1 0 12 69 34
81 26 7 -4 9 -3 6 3 -7 11 80 56 93 48 4 -3 10 -1 12 3 1 5 37 26 78 47 41 22
92 50 112 63 21 13 42 21 49 16 7 -4 10 -3 7 2 -3 5 6 20 20 34 13 14 21 18
17 10 -5 -8 17 12 48 45 31 33 57 64 57 68 0 5 5 5 12 1 6 -4 8 -3 5 3 -3 5 5
26 18 45 22 33 23 48 4 48 -5 0 -15 -12 -23 -27z"/>
<path d="M23500 18029 c-133 -11 -207 -27 -315 -70 -197 -77 -318 -162 -345
-245 -10 -29 -16 -34 -41 -34 -33 0 -79 -20 -98 -44 -8 -9 -27 -16 -43 -16
-46 0 -168 -30 -226 -56 -65 -28 -100 -57 -153 -124 l-39 -49 -99 0 c-65 1
-119 -5 -157 -16 -130 -38 -248 -119 -325 -225 -36 -49 -52 -63 -84 -71 -83
-21 -233 -73 -318 -111 -341 -149 -391 -343 -133 -512 75 -49 232 -126 256
-126 25 0 5 -18 -67 -62 -104 -62 -116 -65 -137 -33 -39 59 -113 52 -184 -17
-57 -55 -75 -92 -77 -155 -2 -43 -7 -56 -33 -83 -18 -17 -34 -46 -38 -67 -4
-21 -5 -212 -1 -426 5 -368 4 -391 -14 -432 -29 -66 -76 -263 -105 -440 -20
-128 -27 -209 -31 -406 -7 -324 13 -523 82 -788 13 -53 36 -145 50 -206 44
-190 148 -376 325 -580 77 -88 332 -330 455 -430 39 -32 71 -59 73 -60 5 -5
31 -121 48 -214 8 -47 19 -161 24 -254 13 -239 34 -281 185 -355 153 -76 227
-82 337 -30 138 66 238 158 379 346 38 50 73 92 77 92 4 0 52 -11 106 -25 109
-28 321 -60 491 -74 186 -16 684 -6 881 18 464 55 802 124 1055 214 89 31 97
32 154 22 138 -26 213 -57 348 -141 98 -60 129 -60 201 4 30 26 76 61 103 77
59 37 93 86 93 134 0 20 -11 75 -24 121 -30 105 -52 214 -61 302 l-7 66 60 79
c250 328 398 687 495 1198 34 177 46 303 51 550 4 226 -3 334 -35 489 -53 259
-138 452 -330 747 l-89 136 -75 314 c-41 173 -88 368 -104 434 l-30 119 39 42
c163 177 -32 366 -536 519 -65 20 -119 37 -120 38 -1 1 -9 27 -19 57 -44 137
-141 282 -226 336 -21 13 -75 34 -121 47 -79 22 -87 27 -168 105 -118 113
-159 132 -302 139 -62 3 -132 1 -155 -5 -34 -8 -56 -5 -125 15 -102 30 -266
63 -313 63 -30 0 -35 3 -35 24 0 31 -40 79 -84 100 -69 33 -207 47 -346 35z
m255 -45 c67 -17 105 -38 105 -59 0 -82 -173 -208 -368 -269 -235 -74 -526
-75 -577 -3 -23 32 -19 53 19 94 66 74 242 160 441 218 154 44 253 49 380 19z
m283 -159 c174 -28 285 -71 397 -156 85 -64 135 -154 107 -195 -20 -31 -47
-32 -107 -6 -55 25 -72 27 -195 28 -78 1 -147 6 -164 13 -83 33 -178 77 -236
108 l-66 35 68 69 c37 37 70 80 74 94 7 30 -1 29 122 10z m689 -145 c34 -17
80 -51 104 -77 l42 -46 -51 -13 c-107 -28 -214 -101 -263 -181 -23 -36 -28
-34 -43 14 -6 18 -2 25 19 35 34 15 65 67 65 109 -1 45 -30 107 -69 143 -40
38 -29 46 65 46 59 0 81 -5 131 -30z m-1889 -65 c1 -1 -4 -29 -13 -61 -18 -71
-12 -114 23 -147 65 -63 431 -203 577 -221 119 -16 115 -14 115 -50 0 -63 -16
-71 -125 -67 -53 1 -124 -3 -160 -10 -63 -12 -65 -12 -127 19 -155 79 -272
197 -347 348 -53 105 -56 147 -17 181 24 21 55 24 74 8z m830 -74 c20 -17 74
-50 120 -74 l83 -44 -25 -17 c-14 -9 -27 -16 -30 -16 -2 0 -32 -16 -66 -36
l-61 -37 -112 6 c-130 8 -155 13 -336 70 l-134 41 79 12 c95 14 240 52 349 92
44 16 84 30 88 31 5 0 25 -12 45 -28z m-1031 -30 c-20 -95 42 -236 162 -372
l41 -47 -45 -12 c-24 -7 -65 -26 -90 -44 l-47 -31 -64 32 c-35 17 -98 39 -141
48 -87 19 -104 34 -123 101 -21 76 25 206 103 291 54 59 100 82 163 83 l51 0
-10 -49z m1724 -51 c20 -5 54 -23 77 -40 34 -24 42 -38 53 -83 6 -30 9 -67 5
-82 -10 -41 -84 -114 -150 -147 -125 -63 -372 -106 -507 -88 -138 18 -196 44
-218 99 -16 38 -1 69 73 141 167 164 474 257 667 200z m679 -32 c82 -30 143
-98 169 -185 21 -69 45 -193 39 -198 -2 -2 -23 1 -48 5 -25 5 -75 9 -111 10
-37 0 -82 6 -100 14 -48 19 -201 41 -284 40 -70 -1 -111 -15 -177 -58 -24 -16
-28 -16 -28 -3 0 9 11 33 25 53 27 40 40 91 32 131 -6 32 33 94 85 138 96 81
261 103 398 53z m-2867 -77 c21 -5 41 -11 43 -14 3 -2 -4 -38 -16 -78 -11 -40
-20 -97 -20 -125 0 -49 -2 -52 -32 -65 -94 -37 -249 -173 -282 -247 -11 -23
-22 -42 -26 -42 -17 0 -62 45 -88 88 -24 42 -27 56 -27 142 0 86 3 100 29 148
74 133 276 226 419 193z m835 -310 c9 -5 -2 -14 -35 -26 -132 -50 -198 -127
-238 -280 -19 -75 -19 -238 0 -330 8 -38 15 -71 15 -72 0 -2 -10 -3 -23 -3
-20 0 -26 9 -42 58 -93 292 -31 547 156 640 45 23 141 30 167 13z m1857 -32
c-33 -17 -77 -42 -98 -57 -97 -66 -233 -282 -298 -474 -21 -61 -39 -112 -41
-114 -2 -2 -17 20 -33 50 l-28 52 17 68 c33 135 147 327 246 419 71 66 120 85
220 86 l75 0 -60 -30z m-1754 -25 c-42 -35 -76 -96 -97 -174 -25 -90 -23 -303
4 -418 l19 -83 -50 3 -50 3 -40 115 c-74 215 -60 370 44 484 50 55 123 94 177
95 23 1 22 0 -7 -25z m-660 -16 c30 -14 69 -39 86 -55 l33 -31 -17 -43 c-27
-69 -23 -277 6 -397 13 -51 21 -95 19 -96 -4 -4 -159 16 -303 38 -55 9 -165
30 -243 48 -173 38 -174 39 -180 167 -3 71 0 96 19 146 40 108 155 200 299
240 82 22 212 15 281 -17z m1109 -2 c67 -33 96 -60 120 -107 l19 -36 -57 -12
c-146 -32 -308 -153 -407 -305 l-50 -77 -8 48 c-5 26 -10 111 -10 188 -2 128
0 144 21 187 27 54 77 102 136 130 61 28 164 21 236 -16z m2057 9 c31 -14 66
-35 76 -46 10 -11 22 -17 27 -14 5 3 11 1 15 -5 3 -5 14 -10 23 -9 11 0 12 3
5 6 -7 2 -13 11 -13 19 0 8 -6 14 -12 14 -7 1 -29 15 -48 31 -31 28 -32 30
-10 24 14 -4 27 -12 28 -16 2 -5 7 -7 12 -4 12 7 170 -67 164 -77 -3 -4 3 -5
12 -1 13 5 15 3 9 -7 -5 -9 -4 -11 3 -6 14 8 64 -23 56 -35 -3 -5 1 -6 9 -3 8
3 19 -2 26 -10 10 -12 8 -14 -11 -10 -16 3 -13 0 7 -8 91 -38 121 -136 68
-215 -36 -53 -139 -137 -159 -129 -8 3 -13 2 -10 -2 5 -9 -124 -76 -135 -70
-3 2 -13 -3 -21 -10 -9 -7 -27 -11 -41 -8 -18 3 -24 1 -21 -8 3 -9 -11 -17
-43 -26 -26 -6 -59 -16 -73 -21 -51 -18 -254 -60 -267 -55 -8 3 -11 1 -8 -4 3
-6 1 -10 -4 -10 -6 0 -80 -12 -163 -26 -84 -14 -175 -27 -203 -29 -27 -2 -104
-11 -170 -20 -66 -9 -136 -15 -155 -14 -19 1 -42 -1 -50 -4 -23 -9 -526 -38
-669 -38 -70 -1 -171 -3 -226 -5 -146 -7 -818 18 -980 37 -49 5 -109 9 -132 9
-24 -1 -43 3 -43 9 0 5 -9 7 -19 4 -38 -10 -476 54 -669 97 -195 44 -232 54
-222 60 5 3 -5 6 -23 6 -37 0 -147 33 -147 44 0 4 -6 8 -12 7 -33 -1 -49 4
-43 13 4 6 -1 7 -11 3 -11 -4 -15 -3 -11 4 5 7 0 9 -11 6 -23 -6 -59 26 -42
37 8 5 7 9 -5 13 -10 4 -14 3 -9 -4 4 -8 -1 -9 -17 -5 -24 7 -24 7 1 -8 14 -9
21 -15 16 -16 -14 0 -166 93 -166 102 0 5 5 6 12 2 7 -4 8 -3 4 4 -4 6 -12 9
-19 6 -18 -6 -71 51 -62 67 5 7 4 10 -2 6 -14 -9 -23 15 -23 57 0 47 52 119
120 167 32 23 61 39 63 37 3 -1 13 5 23 14 11 9 57 33 104 52 56 24 77 30 60
17 -13 -11 -28 -17 -32 -15 -4 3 -8 2 -8 -3 0 -4 -17 -19 -37 -33 -20 -14 -55
-45 -77 -69 -23 -25 -50 -54 -61 -65 -11 -12 -19 -24 -18 -28 2 -5 -1 -8 -5
-8 -5 0 -9 -7 -9 -15 0 -24 9 -18 62 43 50 58 127 122 146 122 5 0 8 -4 5 -8
-3 -5 1 -9 9 -9 11 0 12 4 4 13 -12 15 44 59 63 48 7 -4 9 -3 5 2 -4 4 15 16
44 26 40 14 56 15 63 7 8 -9 7 -10 -1 -5 -7 4 -13 3 -13 -2 0 -10 -50 -37 -63
-33 -5 1 -6 -3 -3 -8 3 -5 -5 -16 -18 -25 -19 -12 -26 -12 -30 -3 -3 6 -4 3
-1 -9 3 -13 -1 -27 -11 -34 -17 -15 -57 -87 -59 -110 -4 -33 -7 -86 -6 -112 2
-51 18 -29 24 31 9 103 78 200 178 251 34 18 43 19 50 8 20 -32 -4 -70 -33
-51 -6 3 -8 2 -5 -4 3 -5 -7 -20 -24 -32 -67 -50 -86 -123 -50 -193 10 -21 16
-39 12 -41 -3 -2 -1 -3 6 -1 6 1 18 -5 28 -15 18 -21 193 -110 245 -126 3 -1
29 -9 59 -18 152 -47 533 -126 681 -141 19 -2 58 -6 85 -9 328 -36 550 -47
955 -47 533 0 841 22 1265 87 22 3 49 7 61 8 11 1 24 4 30 7 8 5 90 21 124 24
8 1 22 4 30 7 8 3 47 13 85 22 100 25 283 84 326 105 28 15 39 16 48 7 10 -9
11 -8 6 6 -5 11 -2 17 7 17 8 0 41 20 75 44 43 32 64 55 72 79 13 37 11 128
-1 120 -5 -2 -9 1 -9 6 -1 6 -2 15 -3 20 0 5 -5 13 -10 18 -5 5 -6 3 -2 -5 7
-11 4 -11 -13 0 -12 7 -21 15 -21 18 0 3 -20 17 -45 30 -25 14 -43 30 -41 36
2 6 -2 11 -10 11 -7 0 -11 -4 -8 -9 3 -4 -2 -5 -10 -2 -9 3 -14 9 -12 13 2 3
-7 7 -21 8 -28 1 -58 25 -52 41 6 16 107 -15 176 -54 38 -21 61 -40 57 -46 -5
-7 -2 -8 5 -3 25 15 99 -80 87 -111 -3 -8 -1 -14 4 -14 13 0 13 -56 0 -80 -7
-13 -7 -21 1 -26 19 -11 29 18 29 89 0 87 -40 172 -95 201 -19 11 -35 23 -35
28 0 5 -3 7 -8 4 -4 -2 -25 7 -47 20 -52 31 -40 30 32 -1z m-301 -39 c125 -58
156 -165 107 -365 -14 -55 -20 -65 -48 -77 -60 -25 -260 -74 -405 -99 -119
-20 -372 -55 -402 -55 -8 0 0 19 70 172 98 212 256 371 426 430 77 26 188 24
252 -6z m-1076 -73 c-16 -47 -53 -120 -78 -152 l-19 -24 -45 31 c-107 74 -215
112 -315 112 -43 0 -72 17 -73 44 0 4 38 5 86 1 149 -12 303 -7 379 13 39 10
72 17 73 16 2 -2 -2 -20 -8 -41z m-275 -148 c32 -9 86 -30 119 -47 100 -53
265 -232 301 -329 5 -14 -7 -17 -87 -23 -306 -22 -940 -34 -981 -18 -16 7 -13
15 23 90 115 238 398 386 625 327z m2090 -625 c3 -14 21 -83 40 -155 19 -71
33 -136 30 -143 -3 -7 -1 -11 4 -8 5 3 11 -9 14 -27 2 -17 17 -74 31 -126 15
-52 24 -96 21 -99 -3 -3 -1 -10 4 -16 23 -28 156 -610 182 -796 17 -127 16
-322 -4 -401 -19 -78 -143 -340 -173 -367 -4 -4 -4 0 1 8 5 9 4 12 -1 7 -5 -5
-9 -16 -9 -25 0 -9 -6 -16 -13 -14 -8 1 -11 -2 -7 -8 21 -35 -212 -275 -246
-254 -8 4 -9 3 -5 -4 4 -7 1 -12 -8 -12 -8 0 -16 -4 -18 -8 -5 -12 -65 -52
-77 -52 -10 0 -51 57 -51 71 0 4 21 21 48 38 26 16 59 42 74 56 28 26 44 33
32 13 -4 -7 -3 -8 5 -4 6 4 9 11 7 15 -3 4 11 23 31 42 19 19 62 69 93 111 32
42 61 74 64 70 4 -3 4 1 0 11 -3 10 -1 17 5 17 6 0 10 3 9 8 -1 4 7 24 17 44
16 32 21 36 34 25 14 -10 14 -10 4 3 -9 12 -3 39 27 130 50 149 66 280 55 455
-12 182 -12 188 -18 205 -3 8 -15 74 -27 145 -29 172 -28 164 -39 210 -6 22
-27 105 -47 185 -42 171 -35 144 -78 304 -19 71 -31 136 -28 144 3 10 1 13 -6
8 -6 -4 -11 1 -11 11 1 10 -6 36 -14 58 -8 22 -28 90 -45 150 -16 61 -43 154
-59 207 -30 98 -30 98 -9 105 12 4 26 6 31 4 6 -1 7 1 3 5 -4 4 0 13 9 20 16
11 22 -4 66 -164 26 -98 50 -188 52 -202z m-245 295 c0 -3 29 -100 65 -217 36
-116 64 -216 62 -222 -6 -16 -317 301 -317 323 0 23 8 30 100 80 73 39 90 46
90 36z m-246 -127 c-40 -115 -40 -349 2 -503 9 -33 17 -64 18 -70 2 -5 20 -45
40 -88 37 -77 56 -95 41 -40 -5 15 -8 31 -7 36 1 4 -3 7 -9 7 -6 0 -9 9 -6 20
3 11 2 18 -2 15 -14 -8 -53 158 -57 239 -4 78 -4 79 16 61 11 -10 17 -22 14
-27 -3 -4 0 -7 8 -6 7 2 12 -3 11 -9 -2 -7 0 -12 5 -12 21 4 34 -3 29 -15 -4
-10 0 -12 14 -9 15 4 18 2 12 -12 -4 -13 -3 -16 6 -11 15 10 64 -33 57 -50 -2
-6 1 -11 8 -10 6 0 38 -27 69 -60 52 -57 71 -84 48 -69 -17 10 -24 -17 -7 -31
9 -8 11 -9 6 -2 -15 18 -12 27 8 23 9 -1 16 -8 14 -15 -1 -6 2 -9 8 -5 16 10
12 34 -10 58 -11 12 -18 27 -16 33 3 7 -3 18 -12 26 -15 11 -16 11 -7 -2 6 -9
-3 0 -20 19 -16 19 -30 38 -30 41 0 4 -27 31 -60 61 -33 30 -86 80 -118 111
l-57 58 5 62 c4 34 8 64 9 66 2 2 11 -4 20 -14 14 -13 14 -19 4 -33 -12 -14
-11 -14 4 -3 15 12 21 11 46 -7 48 -34 57 -48 41 -68 -13 -16 -12 -17 3 -5 19
16 32 10 80 -33 18 -17 41 -34 51 -38 9 -3 17 -12 17 -20 0 -7 12 -24 28 -38
l27 -24 -25 29 -25 30 30 -21 c53 -37 84 -77 94 -122 5 -25 8 -48 5 -52 -2 -4
0 -9 5 -11 4 -1 12 -14 16 -28 7 -23 6 -23 -19 6 -26 32 -35 61 -14 48 7 -4 8
-3 4 4 -4 6 -12 9 -19 6 -13 -5 -56 36 -89 86 -10 14 -18 21 -18 15 0 -6 -3
-6 -8 1 -4 6 -32 33 -62 60 -30 27 -56 53 -57 58 -1 10 -70 46 -86 46 -5 0 6
-17 24 -38 19 -21 37 -37 42 -35 7 4 11 -12 8 -30 -1 -5 3 -6 9 -2 5 3 27 -10
48 -31 20 -20 31 -33 25 -30 -9 5 -11 2 -7 -8 3 -9 10 -14 14 -11 11 7 71 -66
64 -77 -3 -5 -1 -7 4 -6 13 4 64 -60 57 -72 -4 -6 -2 -9 3 -8 17 5 82 -89 76
-109 -4 -13 -3 -15 4 -4 12 16 27 -3 16 -21 -4 -7 -3 -8 4 -4 16 10 26 -15 60
-144 37 -141 65 -275 92 -440 46 -288 45 -446 -5 -644 -20 -80 -67 -180 -80
-169 -4 5 -5 3 -1 -4 9 -17 -42 -96 -56 -87 -7 4 -8 3 -4 -4 4 -7 1 -19 -6
-28 -25 -32 -181 -184 -189 -184 -4 0 -21 -12 -38 -26 -18 -15 -36 -22 -43
-18 -7 4 -10 4 -6 -1 4 -4 -7 -15 -24 -25 -25 -13 -39 -15 -64 -7 -28 8 -44 4
-136 -40 -57 -27 -110 -47 -117 -45 -8 3 -11 0 -8 -5 8 -13 -208 -94 -229 -86
-13 5 -15 3 -9 -7 6 -10 3 -12 -13 -8 -12 4 -22 3 -22 -2 0 -7 -58 -24 -90
-25 -8 0 -20 -4 -26 -7 -48 -30 -718 -130 -773 -115 -12 3 -19 1 -15 -4 3 -5
-25 -10 -63 -10 -37 -1 -79 -3 -93 -5 -14 -1 -206 -7 -428 -13 -342 -8 -407
-12 -428 -26 -14 -9 -29 -13 -34 -10 -5 3 -8 0 -5 -7 2 -7 -4 -23 -14 -36 -19
-22 -22 -22 -128 -12 -105 10 -210 37 -283 75 -44 22 -52 35 -37 55 11 13 10
13 -5 1 -10 -7 -15 -18 -12 -23 4 -6 -3 -5 -15 1 -11 7 -21 16 -21 21 0 5 -10
10 -22 12 -13 2 -22 9 -20 16 1 8 -2 11 -7 7 -12 -7 -83 36 -123 73 -16 14
-28 22 -28 18 0 -5 -7 -3 -15 4 -9 7 -13 20 -10 28 4 12 3 13 -10 2 -10 -8
-15 -9 -15 -1 0 6 -6 11 -13 11 -7 0 -28 14 -47 32 -19 17 -36 30 -38 27 -1
-2 -17 8 -35 22 -17 14 -42 31 -55 38 -12 7 -20 17 -16 23 4 7 3 8 -4 4 -15
-9 -64 23 -55 37 3 6 1 7 -5 3 -7 -4 -12 -2 -12 4 0 6 -4 9 -8 6 -4 -2 -19 5
-32 16 -14 11 -20 17 -14 14 6 -3 11 1 11 8 0 7 -8 11 -16 9 -10 -3 -52 29
-108 82 l-92 87 15 26 c15 25 15 26 -1 7 -16 -20 -17 -19 -45 15 -16 19 -27
36 -25 38 1 2 -8 15 -21 29 -13 14 -24 30 -24 35 0 5 -10 22 -21 37 -13 17
-18 34 -14 42 5 7 4 10 -3 5 -14 -8 -36 30 -26 46 4 6 3 8 -3 5 -12 -8 -56 81
-47 95 4 6 3 8 -3 5 -10 -6 -42 52 -47 85 -1 9 -7 22 -13 29 -18 23 -64 161
-59 176 3 8 2 12 -3 9 -5 -3 -21 33 -36 81 -23 74 -25 91 -14 108 11 18 10 18
-3 7 -13 -11 -17 -9 -22 12 -3 13 -3 32 1 42 4 12 3 15 -6 10 -8 -5 -11 -3
-10 5 1 8 -1 21 -4 29 -10 25 -28 98 -25 107 1 4 -4 26 -10 48 -7 22 -28 127
-48 233 -35 185 -35 194 -20 227 17 35 34 50 22 19 -3 -9 -2 -12 5 -9 5 4 7
15 4 26 -4 11 -2 19 4 19 6 0 11 7 11 15 0 21 22 65 30 60 4 -2 7 2 7 9 0 7
16 39 36 72 43 70 81 174 68 187 -5 5 -16 -8 -27 -32 -10 -23 -21 -41 -24 -41
-4 0 -7 -6 -7 -12 0 -14 -71 -138 -78 -138 -6 0 59 124 67 128 4 2 4 10 1 18
-3 8 -1 14 4 14 5 0 10 12 11 26 1 15 10 33 20 41 9 8 11 11 3 7 -11 -5 -13
-3 -8 10 4 10 7 21 7 26 0 5 10 12 22 16 12 3 28 13 36 20 21 21 29 10 46 -65
34 -149 37 -252 10 -425 -6 -40 -4 -48 7 -44 8 3 13 15 11 26 -2 12 1 22 6 22
5 0 9 8 9 18 -1 46 4 73 11 68 11 -6 8 383 -2 407 -5 10 -4 17 2 17 10 0 12
-4 36 -125 18 -91 20 -162 6 -199 -7 -20 -6 -26 4 -26 16 0 36 98 36 173 0 53
-25 225 -39 275 -9 30 -3 41 13 25 4 -4 15 -8 24 -8 9 -1 36 -5 59 -9 38 -8
44 -13 54 -45 14 -41 22 -244 10 -236 -5 2 -6 -7 -3 -20 6 -34 21 -31 29 5 3
17 8 30 12 30 4 0 6 53 6 119 l0 118 25 -4 c14 -2 88 -15 165 -29 77 -13 147
-25 155 -25 8 0 65 -7 125 -15 96 -12 237 -27 370 -39 129 -12 276 -17 666
-23 240 -4 456 -4 481 -1 24 4 116 10 203 13 187 8 466 36 668 67 78 12 156
23 172 24 17 2 37 5 45 8 8 3 65 15 125 27 98 19 196 41 248 56 16 5 17 -4 11
-143 -8 -172 1 -308 19 -291 8 7 11 42 9 105 -7 187 16 352 48 353 3 0 5 -82
5 -182 0 -197 7 -291 28 -378 15 -67 31 -52 17 16 -18 85 -24 401 -10 469 8
33 12 69 11 79 -2 15 2 18 18 13 12 -3 19 -1 16 3 -3 5 5 11 17 13 13 2 26 5
30 6 4 0 0 -18 -8 -41z m-4099 -52 c-28 -18 -52 -33 -55 -31 -3 1 -18 -10 -35
-26 -29 -28 -29 -28 -5 -22 14 3 31 10 38 16 6 5 12 7 12 3 0 -3 17 4 38 17
20 13 48 27 62 32 22 6 21 4 -10 -24 -19 -16 -42 -28 -50 -25 -8 3 -11 2 -7
-2 10 -10 -31 -36 -45 -28 -6 4 -8 3 -4 -4 4 -6 -22 -26 -63 -48 -39 -21 -68
-41 -65 -46 5 -7 35 5 119 48 l30 16 -25 -21 c-14 -11 -28 -21 -32 -21 -4 0
-29 -16 -54 -35 -26 -20 -48 -34 -50 -32 -5 4 -34 158 -34 177 0 22 56 42 70
26 7 -10 3 -16 -15 -24 -14 -6 -25 -19 -25 -28 0 -14 5 -13 36 5 19 12 40 19
45 16 5 -4 9 -2 9 3 0 5 30 25 66 43 36 19 68 37 71 42 2 4 9 7 16 7 6 0 -11
-15 -38 -34z m-385 -17 c0 8 12 4 30 -9 17 -12 30 -28 30 -36 0 -8 4 -13 8
-10 12 7 36 -39 28 -53 -4 -6 -3 -11 2 -11 9 0 22 -78 26 -145 0 -16 3 -32 6
-35 3 -3 21 -97 39 -210 91 -565 183 -925 312 -1224 21 -49 36 -93 32 -99 -3
-5 -1 -7 5 -3 11 7 28 -30 23 -53 -1 -7 2 -10 7 -7 5 3 15 -9 23 -27 7 -17 21
-44 31 -59 11 -16 16 -34 12 -40 -4 -7 -4 -10 1 -6 11 11 58 -60 49 -74 -4 -7
-3 -8 4 -4 6 4 16 -4 23 -16 7 -13 15 -25 18 -28 21 -16 50 -64 44 -73 -3 -5
-1 -7 4 -4 6 4 19 -3 29 -15 13 -14 14 -19 4 -13 -8 4 1 -6 20 -23 19 -17 38
-31 43 -32 4 0 7 -7 7 -17 0 -9 3 -14 6 -10 3 3 17 -4 29 -16 13 -12 54 -44
92 -72 37 -27 70 -53 73 -56 3 -3 27 -21 55 -39 27 -19 56 -40 65 -46 8 -7 44
-33 80 -58 190 -131 292 -197 360 -232 41 -21 78 -42 81 -47 3 -5 8 -8 10 -6
5 2 46 -9 74 -21 11 -4 67 -21 125 -36 59 -15 114 -36 125 -47 20 -19 20 -19
-3 -7 -13 6 -26 10 -28 7 -3 -3 -32 4 -65 14 -68 21 -119 25 -103 9 13 -13
165 -66 217 -75 20 -4 39 -11 42 -15 8 -13 -113 18 -195 50 -108 41 -254 110
-262 124 -4 6 -8 7 -8 2 0 -5 -6 -3 -14 3 -8 7 -17 8 -20 3 -6 -11 135 -89
309 -170 132 -61 177 -77 207 -73 22 3 31 -14 14 -28 -11 -10 -21 -9 -43 2
-34 18 -203 78 -203 72 0 -7 -124 33 -163 52 -21 11 -34 23 -30 28 4 4 2 5 -5
1 -12 -7 -142 66 -174 98 -7 6 -30 22 -50 35 -21 12 -38 27 -38 32 0 6 -4 8
-8 5 -4 -3 -25 10 -45 29 -20 19 -37 32 -37 29 0 -3 -17 7 -37 23 -21 16 -50
36 -64 45 -14 9 -32 23 -40 30 -8 7 -36 29 -62 48 -72 52 -171 131 -177 139
-3 5 -15 13 -28 20 -12 7 -20 17 -16 23 4 6 3 8 -3 5 -15 -9 -253 241 -253
266 0 4 -18 30 -40 59 -23 30 -38 59 -34 68 3 8 2 11 -2 7 -20 -19 -161 303
-219 498 -14 50 -37 126 -50 170 -22 74 -37 137 -36 150 0 2 -6 23 -14 45 -8
22 -14 43 -14 45 1 3 -9 47 -21 98 -50 214 -59 255 -71 312 -6 33 -13 69 -14
80 -2 11 -8 40 -15 64 -6 23 -9 49 -6 57 3 8 2 14 -3 14 -6 0 -20 59 -37 165
-2 11 -10 47 -18 80 -8 33 -17 77 -19 97 -4 42 -21 66 -55 79 -18 7 -30 4 -58
-17 -26 -20 -34 -23 -34 -11 0 18 26 47 43 48 7 0 23 3 37 5 15 3 29 -1 36
-11 10 -14 12 -14 18 2 4 10 2 19 -3 21 -6 2 -9 7 -6 12 3 4 -14 6 -37 3 -32
-3 -39 -2 -28 6 8 6 23 11 33 11 10 0 15 5 12 10 -3 6 -16 10 -28 10 -17 0
-19 2 -7 10 9 5 19 5 27 -2 9 -7 13 -7 13 1z m-29 -202 c6 -22 2 -30 -22 -48
-16 -11 -33 -18 -38 -15 -5 3 -15 -2 -22 -11 -10 -12 -10 -14 -1 -9 7 4 12 1
12 -8 0 -13 4 -14 28 -3 15 6 33 18 41 25 7 7 16 11 18 8 9 -8 -70 -71 -86
-69 -14 1 -14 0 0 -10 10 -8 13 -20 8 -37 -11 -38 -10 -98 1 -105 5 -3 7 0 4
8 -8 21 33 121 61 147 30 28 33 22 6 -9 -12 -13 -23 -46 -27 -79 -9 -70 2
-307 22 -482 9 -74 17 -148 19 -165 3 -36 27 -151 61 -293 13 -57 21 -109 17
-114 -3 -6 -1 -8 5 -4 12 7 27 -28 18 -43 -7 -11 13 -9 32 3 8 4 10 16 6 28
-5 16 -3 19 7 13 9 -6 8 -2 -2 11 -9 10 -22 48 -28 84 -7 36 -17 76 -22 90
-10 28 -46 226 -51 280 -3 39 25 131 52 170 18 25 19 29 21 53 0 6 34 -121 74
-283 41 -162 72 -301 70 -307 -2 -7 -1 -13 4 -13 4 0 14 -26 21 -57 7 -32 33
-118 56 -192 24 -73 41 -138 37 -144 -4 -6 -1 -7 7 -2 10 6 12 1 8 -18 -3 -15
-2 -24 2 -22 11 7 22 -24 13 -37 -3 -7 -1 -8 5 -4 12 7 17 -10 14 -47 -1 -12
2 -16 10 -11 8 5 9 2 5 -10 -4 -9 -3 -14 2 -11 12 7 24 -31 15 -46 -4 -7 -3
-9 3 -6 6 4 27 -26 47 -66 46 -89 73 -133 109 -180 15 -21 25 -37 20 -37 -4 0
3 -7 15 -16 15 -10 21 -22 17 -32 -3 -9 -3 -13 1 -9 10 10 35 -13 27 -26 -3
-5 -1 -7 4 -4 6 4 16 0 23 -8 7 -8 9 -15 4 -15 -5 0 -1 -5 9 -11 9 -6 14 -15
11 -21 -4 -6 -3 -8 3 -5 5 3 32 -17 59 -44 27 -28 86 -80 131 -116 46 -36 80
-70 76 -76 -3 -6 -1 -7 5 -3 10 6 61 -25 102 -62 8 -7 69 -52 135 -99 66 -48
122 -89 125 -92 3 -4 29 -22 57 -40 29 -18 50 -37 47 -42 -3 -5 1 -6 8 -4 8 3
23 -2 34 -12 20 -19 66 -46 122 -73 18 -9 29 -20 25 -25 -4 -4 -3 -5 3 -2 6 3
53 -7 104 -23 51 -17 101 -30 112 -30 12 0 17 -4 12 -12 -4 -7 -3 -8 4 -4 6 4
23 4 37 0 22 -5 24 -9 13 -23 -11 -14 -11 -14 4 -3 27 21 90 -14 99 -55 3 -17
19 -53 35 -80 16 -26 27 -52 26 -56 -1 -5 2 -6 8 -2 6 4 16 2 23 -3 22 -18
340 -35 677 -37 184 -1 327 1 317 4 -10 4 25 12 80 20 93 12 231 41 458 96 86
20 315 73 349 79 23 5 114 35 179 60 38 14 65 20 61 13 -4 -7 1 -4 12 5 33 29
97 48 120 35 16 -9 17 -8 6 5 -13 17 -19 14 129 66 31 11 72 28 90 38 19 10
38 17 44 15 5 -1 7 1 2 5 -10 10 23 45 36 37 5 -3 7 -2 4 3 -3 6 -1 16 4 24 8
13 10 13 19 0 6 -9 10 -10 10 -3 0 6 -4 14 -9 17 -5 4 -2 20 6 38 9 17 18 65
21 105 l5 74 70 47 c39 26 102 78 141 116 39 39 74 70 79 70 4 1 6 3 5 6 -4
14 24 50 35 44 7 -4 9 -4 5 1 -9 10 19 65 34 65 6 0 9 2 6 6 -3 3 22 62 57
132 34 70 68 144 75 164 8 20 18 34 23 31 6 -3 7 -1 4 4 -4 6 2 37 13 69 36
103 46 235 30 407 -18 206 -17 200 -40 307 -11 52 -20 97 -20 100 1 19 98
-233 100 -258 0 -4 5 -23 10 -42 5 -19 11 -61 14 -92 7 -64 14 -88 27 -88 8 0
14 42 11 80 -7 93 -10 119 -14 126 -3 5 -8 25 -12 44 -11 61 -14 74 -30 119
-9 24 -14 46 -11 49 2 3 7 -1 9 -9 33 -95 67 -207 80 -259 18 -77 38 -272 35
-351 -1 -30 1 -61 5 -68 9 -14 -1 -238 -15 -346 -14 -113 -62 -350 -71 -353
-4 -2 -6 -8 -3 -12 8 -13 -53 -244 -65 -248 -6 -2 -7 -8 -4 -13 9 -15 -87
-270 -99 -262 -6 3 -7 1 -3 -5 9 -15 -47 -135 -59 -125 -4 4 -6 1 -3 -8 4 -9
-4 -33 -17 -55 -13 -21 -33 -57 -45 -79 -46 -89 -80 -136 -93 -128 -6 4 -7 1
-2 -7 5 -8 1 -18 -10 -27 -11 -7 -15 -13 -11 -13 4 0 -2 -14 -14 -30 -12 -17
-26 -27 -32 -24 -7 5 -8 2 -3 -5 4 -8 -1 -22 -14 -35 -11 -11 -40 -46 -64 -76
-25 -30 -50 -54 -56 -52 -7 1 -9 -2 -6 -9 8 -12 -125 -140 -137 -133 -4 3 -8
1 -8 -3 0 -13 -131 -118 -208 -167 -96 -61 -212 -118 -229 -112 -8 3 -12 2 -9
-3 8 -12 -159 -75 -184 -68 -11 3 -18 1 -15 -4 3 -4 -34 -20 -82 -34 -133 -40
-166 -48 -205 -48 -15 0 -26 -3 -23 -6 5 -10 -291 -64 -304 -56 -6 3 -11 2
-11 -3 0 -9 -74 -22 -156 -28 -18 -1 -63 -7 -100 -13 -204 -32 -407 -46 -679
-45 -155 1 -311 6 -350 12 -38 6 -86 13 -105 15 -98 11 -249 41 -244 48 3 5
-2 6 -10 3 -9 -3 -24 -3 -33 1 -10 4 -31 9 -47 11 -17 3 -48 9 -70 15 -107 30
-141 17 -47 -17 l49 -17 -37 -48 c-20 -26 -42 -46 -49 -44 -7 3 -10 0 -7 -5 8
-13 -20 -42 -30 -32 -5 4 -5 1 0 -6 9 -16 -53 -84 -68 -75 -6 3 -7 1 -4 -5 4
-5 -27 -37 -69 -71 -70 -56 -79 -60 -94 -46 -9 8 -21 15 -26 15 -5 0 -1 -5 9
-11 9 -5 17 -14 17 -20 0 -14 -100 -59 -131 -59 -46 0 -89 12 -82 23 3 6 1 7
-5 3 -17 -10 -55 13 -48 29 3 8 1 17 -5 20 -5 4 -9 3 -8 -2 3 -20 -2 -25 -16
-13 -12 10 -13 16 -3 29 12 14 11 15 -5 2 -16 -13 -22 -10 -57 30 -22 24 -40
52 -40 62 0 9 -4 17 -9 17 -10 0 -45 119 -40 135 2 6 -2 19 -8 30 -16 29 -49
125 -84 245 -44 151 -44 144 1 114 22 -15 37 -30 35 -35 -3 -4 0 -11 6 -15 8
-5 9 -3 4 6 -5 8 -3 11 6 8 8 -2 15 -20 17 -39 6 -73 60 -323 85 -393 15 -44
31 -56 41 -31 3 9 2 14 -3 11 -5 -3 -12 36 -17 87 -4 50 -9 99 -10 107 -2 8
-5 31 -7 50 -3 19 -7 42 -10 50 -3 8 -10 40 -15 72 -7 45 -6 55 5 51 7 -3 11
-8 9 -12 -2 -3 7 -7 21 -8 14 0 28 -5 32 -10 3 -4 15 -9 26 -11 11 -1 43 -6
70 -11 28 -5 53 -7 58 -4 11 7 8 43 -4 43 -5 0 -7 5 -3 12 4 6 3 8 -4 4 -14
-9 -103 35 -95 47 3 5 0 7 -8 5 -18 -7 -66 17 -103 51 -16 14 -26 20 -21 13 6
-11 3 -12 -13 -3 -29 15 -37 32 -21 42 9 6 10 9 2 9 -6 0 -15 -5 -18 -10 -5
-8 -11 -7 -21 1 -7 6 -12 15 -9 19 3 5 0 12 -6 16 -8 4 -9 3 -5 -4 19 -31 -31
5 -143 103 -114 99 -218 209 -169 179 7 -4 8 -3 4 5 -4 6 -12 9 -17 5 -11 -7
-46 35 -41 49 1 5 -1 6 -6 4 -13 -9 -114 101 -106 115 4 7 3 10 -1 5 -11 -9
-125 102 -125 122 0 8 -3 12 -6 8 -8 -8 -57 50 -50 61 2 4 0 14 -6 22 -8 12
-9 11 -4 -3 4 -12 2 -17 -6 -14 -7 2 -13 11 -13 20 0 8 -4 19 -9 24 -5 5 -6 2
-2 -7 4 -8 -6 1 -22 20 -21 24 -27 39 -21 47 7 7 6 14 -2 19 -8 4 -9 3 -5 -4
4 -7 3 -12 -3 -12 -14 0 -53 58 -46 69 3 5 0 13 -6 17 -8 5 -9 3 -4 -7 8 -12
6 -12 -8 0 -9 7 -17 17 -17 21 0 5 -20 43 -45 84 -25 42 -45 81 -45 87 0 5 -7
20 -15 33 -43 66 -129 547 -124 696 1 30 -2 63 -6 74 -9 20 2 320 14 426 7 51
9 23 12 -135 2 -110 4 -233 4 -273 0 -39 3 -72 6 -72 3 0 9 -30 12 -67 9 -102
28 -193 40 -193 6 0 8 30 3 88 -29 387 -26 699 8 842 l13 55 1 -75 c2 -89 32
-443 38 -449 15 -16 15 -23 7 1013 -3 373 -2 698 2 722 5 35 14 49 48 76 23
18 38 26 34 18 -5 -8 0 -5 9 8 21 28 36 24 45 -11z m4477 -2500 c9 -8 26 -17
37 -19 26 -4 30 -37 10 -84 -9 -22 -16 -41 -16 -44 0 -9 -63 -39 -81 -40 -10
0 -18 -4 -18 -8 0 -14 -137 -65 -151 -57 -8 6 -10 4 -4 -5 5 -8 3 -11 -6 -8
-8 3 -13 12 -11 21 1 8 -2 18 -8 22 -6 3 -7 0 -4 -9 4 -10 1 -16 -7 -16 -12 0
-12 -2 -1 -9 17 -10 -44 -41 -82 -41 -14 0 -26 -4 -26 -8 0 -9 -91 -35 -106
-30 -5 1 -20 -4 -33 -11 -12 -7 -32 -11 -42 -8 -10 3 -17 1 -14 -3 5 -9 -79
-26 -102 -22 -7 2 -13 -1 -13 -6 0 -9 -23 -13 -79 -14 -19 0 -21 -2 -10 -10
10 -7 7 -8 -13 -5 -15 2 -25 0 -22 -4 3 -5 -5 -9 -18 -9 -29 0 -54 -15 -40
-24 5 -3 24 -1 41 5 17 6 40 9 51 6 12 -3 18 -1 14 5 -5 7 4 9 24 6 19 -3 29
0 25 5 -4 6 3 8 15 5 12 -4 22 -3 22 2 0 4 11 8 25 8 14 0 37 4 52 10 23 9 92
27 182 47 9 2 63 17 121 34 57 16 108 27 112 25 4 -3 8 0 8 5 0 6 5 11 10 11
6 0 10 -4 10 -8 0 -12 -50 -33 -61 -27 -5 4 -9 2 -9 -4 0 -6 -7 -7 -17 -4 -12
5 -14 3 -8 -7 6 -10 4 -12 -10 -6 -11 4 -22 2 -26 -5 -4 -7 -15 -13 -26 -14
-10 -1 -30 -7 -44 -13 -15 -6 -44 -14 -65 -17 -22 -4 -55 -12 -74 -18 -19 -6
-42 -11 -50 -12 -8 0 -33 -6 -55 -12 -66 -19 -154 -37 -190 -37 -18 -1 -31 -4
-28 -8 2 -5 0 -8 -6 -8 -6 0 -57 -7 -113 -15 -57 -8 -129 -16 -160 -19 -31 -2
-61 -7 -66 -10 -4 -2 -64 -12 -133 -21 -68 -9 -137 -19 -154 -21 -16 -3 -114
-7 -217 -10 l-187 -5 -16 24 c-12 19 -13 30 -5 51 5 15 10 29 10 31 0 2 -33 9
-74 15 -90 15 -100 21 -93 52 10 38 62 70 118 72 27 0 49 3 50 6 0 3 2 12 4
21 2 12 -5 15 -26 14 -21 -1 -26 1 -19 10 7 8 64 14 163 19 191 8 201 9 205
28 2 13 31 16 170 22 560 22 576 24 712 68 69 22 132 43 140 45 8 3 22 7 30 8
8 1 58 17 110 35 52 17 100 33 105 34 13 3 79 21 125 35 46 13 116 7 138 -12z
m511 -1199 c1 -57 4 -112 6 -123 7 -29 17 -106 19 -137 0 -14 4 -24 7 -22 10
6 19 -54 12 -73 -10 -25 -25 -39 -69 -62 -22 -11 -53 -34 -71 -50 -17 -16 -34
-26 -37 -23 -3 3 -6 0 -6 -7 0 -18 -40 -6 -98 29 -45 28 -50 35 -39 49 10 14
10 14 -5 3 -19 -15 -51 -3 -76 27 -8 9 -11 11 -8 5 3 -6 -33 3 -79 20 -79 29
-105 51 -59 50 35 0 94 -25 88 -36 -4 -7 -2 -8 5 -4 16 10 83 -13 75 -26 -4
-6 -2 -8 4 -4 12 7 83 -24 77 -34 -2 -3 22 -6 54 -6 47 1 64 6 95 29 20 16 47
45 60 65 22 35 22 38 9 111 -7 42 -14 106 -15 144 -2 43 -7 67 -14 67 -16 0
-27 -113 -18 -199 6 -69 6 -71 -24 -101 -24 -24 -39 -30 -72 -30 -29 0 -39 3
-34 12 5 8 2 9 -10 5 -17 -7 -176 60 -176 73 0 3 13 13 29 23 16 10 57 40 90
68 33 28 65 48 71 44 5 -3 7 0 5 7 -6 16 143 165 159 160 6 -2 8 0 3 4 -7 7
20 44 33 44 4 0 8 -46 9 -102z"/>
<path d="M20913 13403 c1 -20 4 -28 9 -20 7 11 12 -12 11 -50 -1 -7 4 -10 10
-6 7 4 8 0 3 -13 -4 -10 -4 -15 0 -11 11 10 55 -85 48 -103 -3 -8 -2 -11 2 -7
9 9 77 -100 70 -112 -4 -5 2 -16 12 -23 30 -22 93 -118 86 -131 -4 -7 -4 -9 1
-5 7 7 47 -35 45 -48 -1 -3 6 -11 16 -18 9 -7 14 -18 10 -25 -5 -7 -2 -10 6
-9 7 2 12 -3 10 -10 -1 -8 2 -11 7 -7 12 7 33 -29 23 -40 -4 -5 -2 -5 5 -1 7
3 21 -7 35 -26 12 -18 38 -49 55 -68 18 -19 33 -38 33 -42 0 -4 4 -8 9 -8 5 0
9 15 8 34 -2 26 -5 32 -14 24 -13 -10 -18 2 -13 27 1 5 -2 7 -6 3 -4 -5 -12 1
-18 11 -6 11 -35 50 -63 87 -44 56 -50 70 -40 83 10 14 10 14 -4 3 -13 -10
-18 -10 -28 1 -6 8 -8 17 -4 20 3 4 2 7 -4 7 -18 0 -166 228 -157 241 4 7 3 9
-3 6 -5 -3 -26 23 -46 59 -20 35 -32 62 -26 59 5 -3 6 1 3 9 -3 9 -11 13 -17
9 -6 -4 -8 0 -4 11 5 11 3 15 -5 10 -8 -5 -9 -2 -5 10 4 9 3 15 -2 12 -10 -7
-44 71 -37 83 3 4 -1 8 -8 8 -9 0 -14 -12 -13 -34z"/>
<path d="M6199 17769 c-507 -30 -1052 -195 -1672 -505 -400 -200 -759 -441
-993 -666 -212 -204 -287 -373 -263 -590 15 -130 121 -462 334 -1043 154 -420
215 -608 270 -828 97 -385 141 -710 161 -1186 6 -146 5 -153 -12 -148 -205 60
-516 76 -738 37 -189 -32 -365 -100 -515 -197 -95 -62 -221 -198 -269 -291
-112 -215 -111 -444 4 -682 107 -223 357 -528 534 -653 201 -141 467 -243 789
-303 457 -84 744 -72 1236 53 208 53 367 106 515 172 146 65 231 117 353 215
l105 85 129 -24 c432 -80 725 -98 1113 -70 629 45 868 97 1145 248 354 193
535 326 791 582 206 206 307 366 360 574 55 215 17 429 -101 572 -206 246
-688 320 -1140 173 -117 -38 -329 -143 -440 -219 -54 -36 -99 -65 -100 -63 -1
2 -14 26 -28 54 -40 80 -90 118 -167 126 -29 4 -32 13 -57 228 -13 115 -18
226 -17 430 1 467 52 974 189 1860 84 547 88 588 89 845 0 173 -4 259 -17 345
-31 197 -109 396 -193 489 -136 151 -471 298 -809 355 -191 33 -353 39 -586
25z m797 -4521 c-6 -57 -24 -683 -31 -1068 -3 -124 -6 -156 -18 -158 -11 -2
-13 30 -9 206 3 126 1 216 -5 226 -7 13 -12 -26 -17 -131 -9 -176 -26 -305
-43 -310 -8 -3 -11 30 -11 122 0 70 -2 128 -4 131 -3 2 -10 -53 -17 -123 -7
-71 -16 -131 -20 -136 -11 -11 -191 -44 -314 -57 -108 -12 -109 -12 -228 21
l-119 32 -15 51 c-17 55 -88 410 -130 645 -41 233 -59 226 -29 -11 13 -103 96
-546 120 -642 7 -28 6 -29 -22 -22 -42 10 -49 24 -68 138 -49 284 -132 675
-142 665 -3 -3 13 -97 35 -211 37 -187 83 -450 93 -534 9 -67 -16 -23 -32 59
-10 46 -37 149 -60 229 -50 173 -170 646 -170 671 0 21 6 23 125 44 167 29
990 195 1040 209 28 8 61 15 74 15 23 1 23 0 17 -61z m1945 48 c107 -18 199
-44 199 -57 0 -6 4 -7 10 -4 16 10 150 -59 150 -78 0 -5 -5 -5 -12 -1 -7 5 -8
3 -3 -5 5 -9 11 -9 17 -3 13 13 70 -26 61 -41 -3 -6 -1 -7 4 -4 15 9 47 -29
37 -45 -4 -7 -4 -10 1 -6 22 20 99 -118 116 -208 16 -83 5 -254 -21 -334 -29
-91 -90 -211 -103 -203 -5 3 -7 1 -3 -5 3 -6 -4 -26 -16 -44 -97 -141 -190
-241 -324 -347 -49 -39 -106 -85 -126 -101 -20 -17 -41 -30 -46 -30 -5 0 -17
-9 -27 -20 -10 -12 -25 -18 -32 -15 -8 2 -12 1 -9 -4 6 -8 -69 -64 -89 -67 -5
0 -16 -2 -23 -2 -6 -1 -11 -7 -10 -13 2 -5 -13 -20 -34 -32 -20 -12 -57 -35
-82 -50 -26 -15 -51 -25 -58 -21 -7 4 -8 3 -4 -4 10 -16 -6 -15 -24 1 -12 10
-12 9 -1 -5 11 -15 2 -22 -86 -64 -54 -25 -108 -47 -120 -48 -11 0 -19 -5 -15
-10 3 -5 -2 -6 -12 -3 -9 4 -15 3 -12 -2 7 -11 -41 -24 -54 -16 -6 4 -10 1
-10 -6 0 -8 -4 -8 -16 1 -12 11 -15 11 -12 0 6 -24 -255 -89 -377 -94 -16 -1
-35 -5 -42 -9 -6 -4 -24 -7 -40 -7 -15 1 -66 -3 -113 -9 -140 -16 -423 -30
-626 -31 -170 -1 -494 21 -534 37 -8 3 -28 6 -45 8 -40 4 -104 12 -135 19 -14
2 -57 9 -96 15 -40 6 -103 18 -140 26 -74 17 -76 17 -174 36 -36 7 -67 16 -70
19 -3 4 -27 10 -55 13 -27 3 -106 19 -175 35 -69 17 -175 40 -237 53 -62 13
-106 27 -100 31 7 5 -3 5 -20 2 -20 -4 -39 -2 -48 6 -8 6 -19 9 -24 6 -5 -4
-38 0 -73 8 -103 24 -258 46 -410 58 -158 12 -291 3 -457 -32 -52 -10 -99 -16
-104 -13 -6 3 -7 1 -4 -4 4 -6 -12 -15 -39 -22 -26 -7 -63 -20 -83 -30 -20
-10 -42 -16 -50 -13 -9 3 -11 0 -6 -8 6 -10 4 -12 -9 -7 -9 4 -15 3 -12 -2 3
-5 -6 -17 -21 -26 -88 -58 -126 -132 -121 -236 2 -37 6 -65 9 -63 4 2 10 -8
14 -23 8 -32 53 -99 94 -137 16 -16 28 -34 24 -39 -3 -6 -1 -7 6 -3 11 7 82
-30 89 -46 2 -4 10 -4 19 -1 9 4 14 2 10 -3 -3 -5 2 -10 11 -10 9 -1 44 -9 77
-19 66 -19 402 -36 465 -23 39 8 316 46 340 47 8 0 35 5 59 11 24 6 60 13 80
15 20 2 99 19 175 39 77 19 144 32 149 29 6 -3 7 -2 4 4 -7 12 140 56 155 47
6 -4 8 -3 4 4 -8 13 59 36 75 26 7 -4 9 -3 6 3 -4 6 0 14 9 17 9 4 13 2 8 -5
-4 -7 7 -2 24 11 18 14 35 19 44 15 7 -5 10 -5 6 0 -10 10 231 127 245 118 6
-3 7 -1 3 5 -5 8 0 12 13 12 11 0 22 -4 26 -10 3 -5 13 -6 23 -3 9 3 5 -4 -10
-16 -15 -12 -33 -19 -39 -15 -7 4 -9 3 -5 -4 3 -6 -24 -32 -62 -60 -85 -61
-129 -85 -144 -76 -6 4 -8 3 -5 -3 8 -13 -50 -46 -65 -37 -7 5 -8 3 -3 -6 6
-10 4 -12 -8 -7 -10 3 -17 3 -17 -2 0 -12 -50 -32 -62 -25 -7 4 -8 2 -4 -4 6
-11 -6 -16 -26 -13 -5 0 -8 -3 -8 -8 0 -8 -27 -18 -70 -26 -3 0 -32 -11 -65
-24 -85 -32 -335 -95 -425 -107 -14 -2 -61 -10 -105 -19 -243 -46 -497 -58
-661 -30 -142 25 -363 78 -358 87 3 4 -2 5 -11 2 -16 -7 -177 55 -171 65 2 3
-6 7 -19 7 -23 2 -125 72 -125 86 0 4 -5 8 -11 8 -10 0 -35 27 -84 89 -11 14
-14 22 -8 18 6 -4 15 -3 18 3 4 6 3 10 -2 9 -4 -1 -13 -1 -20 0 -16 2 -65 89
-57 103 4 6 3 8 -3 5 -15 -9 -44 38 -37 60 5 15 4 16 -6 3 -10 -13 -11 -11 -7
8 3 14 1 20 -6 15 -6 -4 -8 0 -4 10 4 11 2 14 -9 10 -11 -4 -13 -14 -8 -36 5
-22 3 -28 -6 -22 -9 5 -11 4 -6 -4 4 -6 11 -9 15 -7 4 3 21 -22 36 -55 16 -33
41 -78 57 -101 15 -23 24 -46 21 -51 -3 -6 -1 -7 4 -4 6 4 16 -6 23 -22 6 -16
20 -37 31 -47 10 -9 16 -21 13 -25 -3 -5 -1 -9 4 -9 6 0 12 -7 16 -15 4 -11
-10 -9 -61 10 -36 14 -67 25 -68 25 -12 0 -83 79 -77 85 4 5 2 5 -5 1 -7 -4
-19 5 -29 21 -10 15 -30 42 -45 58 -38 41 -120 176 -113 186 3 5 1 9 -4 9 -11
0 -83 154 -107 230 -21 66 -40 92 -30 40 4 -19 25 -87 46 -150 22 -63 41 -123
42 -132 1 -9 3 -15 6 -13 2 3 14 -17 26 -43 12 -26 40 -77 63 -115 30 -49 36
-64 21 -57 -25 14 -52 56 -44 69 3 6 0 9 -8 6 -14 -6 -114 110 -109 127 1 5
-2 7 -7 4 -13 -8 -83 92 -75 106 4 6 3 8 -4 5 -20 -13 -141 221 -126 244 4 7
3 9 -3 6 -6 -4 -13 7 -17 26 -3 17 -9 41 -11 52 -22 84 -27 168 -15 249 7 47
15 84 19 82 9 -6 8 40 0 49 -14 13 -42 -105 -48 -200 -7 -105 2 -169 37 -282
11 -34 17 -65 14 -68 -3 -3 0 -5 7 -5 7 0 11 -6 8 -14 -3 -8 -3 -16 2 -18 8
-3 74 -128 67 -128 -2 0 -23 24 -45 53 -22 28 -44 57 -49 62 -7 9 -64 95 -100
150 -22 35 -73 148 -88 195 -24 76 -29 196 -10 268 20 80 54 154 66 147 6 -4
7 1 3 11 -4 12 -3 15 5 10 8 -4 10 -2 6 7 -7 20 133 166 213 222 35 25 62 41
58 35 -3 -6 0 -7 9 -4 9 3 13 11 9 17 -4 6 0 8 10 4 10 -3 17 -3 17 2 0 26
239 100 393 122 118 17 334 14 451 -5 120 -20 317 -76 310 -87 -3 -5 2 -6 10
-3 9 3 16 2 16 -3 0 -5 6 -10 14 -10 26 0 76 -25 69 -36 -3 -6 -1 -7 5 -3 15
9 214 -93 205 -106 -3 -7 -1 -8 5 -4 11 6 60 -18 73 -37 3 -5 9 -8 13 -7 11 3
96 -44 96 -54 0 -4 -6 -6 -13 -3 -8 3 -14 -1 -14 -8 0 -10 6 -11 21 -3 25 11
76 -5 76 -23 0 -7 3 -10 6 -7 3 4 32 -7 64 -23 32 -16 64 -29 70 -29 6 0 9 -4
6 -8 -2 -4 3 -8 12 -9 9 0 49 -13 87 -27 39 -15 95 -36 125 -47 30 -10 62 -22
70 -26 8 -3 17 -7 20 -8 3 0 29 -7 57 -14 33 -8 50 -17 46 -24 -4 -7 0 -8 11
-4 10 4 23 4 29 0 7 -4 22 -9 34 -10 11 -2 47 -12 79 -23 31 -11 66 -20 76
-20 12 0 16 -4 12 -12 -4 -7 -3 -8 5 -4 6 4 62 -8 124 -28 61 -19 155 -47 207
-61 52 -15 100 -31 106 -36 7 -5 16 -9 20 -8 21 4 93 -14 88 -23 -3 -5 6 -6
22 -2 21 5 25 4 19 -6 -5 -9 -4 -11 4 -6 6 4 27 2 47 -4 19 -7 41 -13 47 -14
56 -10 165 -41 163 -45 -2 -3 14 -7 37 -8 22 -2 45 -7 51 -13 5 -5 22 -10 36
-10 15 0 46 -6 71 -14 58 -19 179 -46 202 -46 10 0 16 -3 14 -7 -3 -5 7 -8 21
-9 15 0 101 -15 192 -32 440 -82 823 -74 1274 27 50 11 93 18 98 15 4 -3 8 -1
8 4 0 5 25 14 56 21 31 7 87 24 125 36 39 13 77 21 87 18 9 -3 14 -3 10 2 -8
8 144 77 174 78 9 1 15 3 13 6 -4 3 101 70 171 109 39 21 154 141 214 224 31
42 60 74 64 71 4 -4 4 0 0 10 -3 10 -1 17 5 17 6 0 11 6 11 13 0 6 10 28 22
47 12 19 23 40 24 45 2 6 16 45 33 87 65 165 77 345 31 452 -10 25 -16 46 -13
46 4 0 0 6 -8 13 -30 24 -70 87 -63 99 4 7 3 8 -4 4 -6 -4 -33 10 -59 30 -171
131 -419 156 -712 70 -47 -14 -88 -23 -92 -20 -4 2 -9 -1 -11 -6 -2 -6 -14
-12 -28 -14 -14 -2 -34 -7 -45 -11 -11 -4 -60 -23 -109 -42 -49 -19 -95 -32
-103 -29 -8 3 -12 2 -9 -3 6 -10 -40 -26 -63 -22 -7 1 -10 -2 -7 -7 7 -12 -71
-45 -86 -36 -6 4 -9 3 -5 -2 3 -5 -19 -21 -49 -36 -35 -18 -54 -23 -54 -15 0
8 -4 7 -10 -3 -5 -8 -10 -10 -10 -4 0 30 347 246 416 258 14 3 31 10 38 15 7
6 21 12 32 14 10 1 25 6 32 11 7 4 16 5 19 2 3 -3 11 -2 17 3 12 9 149 39 206
44 93 9 284 5 361 -7z m-1257 -361 c5 -41 -16 -96 -36 -92 -7 1 -12 -5 -13
-14 0 -18 -28 -49 -44 -49 -6 0 -11 -5 -11 -11 0 -6 -7 -8 -16 -5 -8 3 -13 2
-10 -2 7 -11 -92 -64 -104 -57 -6 4 -10 2 -10 -3 0 -5 -17 -16 -37 -25 -34
-13 -35 -15 -13 -16 36 -1 138 26 163 44 26 18 41 20 31 3 -4 -7 -3 -8 5 -4 6
4 9 12 6 17 -4 5 -1 9 4 9 6 0 13 0 15 1 3 0 24 19 48 41 34 32 44 37 46 24 6
-29 -48 -86 -133 -142 -55 -36 -89 -52 -102 -48 -12 4 -14 3 -5 -3 12 -9 -44
-38 -135 -70 -48 -16 -65 -33 -35 -33 27 0 149 38 193 61 20 10 39 15 43 12 3
-4 6 -1 6 6 0 7 4 10 9 7 4 -3 16 3 26 14 10 11 22 20 26 20 5 0 32 18 61 40
29 22 56 40 60 40 3 0 9 -24 13 -52 3 -29 8 -60 11 -69 5 -17 -34 -74 -44 -65
-3 3 3 16 14 28 l19 23 -23 -19 c-12 -11 -20 -26 -18 -33 3 -7 -7 -24 -22 -38
-36 -35 -181 -108 -199 -101 -8 3 -11 1 -8 -4 3 -6 -3 -10 -14 -10 -21 0 -37
-17 -27 -28 4 -3 29 2 56 12 27 10 55 14 61 10 8 -5 9 -3 4 6 -6 10 -4 12 8 7
10 -3 17 -2 17 3 0 4 17 14 38 21 20 6 62 29 94 49 l56 38 -4 -27 c-6 -36 -97
-123 -120 -114 -10 4 -15 2 -11 -4 3 -5 -11 -17 -32 -26 -57 -26 -151 -57
-151 -50 0 3 -6 1 -12 -5 -12 -9 -100 -38 -146 -47 -11 -2 -34 -11 -52 -20
-21 -11 -29 -12 -24 -4 4 7 -3 5 -17 -4 -44 -31 -135 -11 -113 24 4 8 3 9 -4
5 -7 -4 -12 -4 -13 1 0 4 -2 17 -4 28 -32 181 -31 513 1 501 8 -3 14 0 14 5 0
6 9 9 20 6 11 -3 18 -1 14 4 -5 9 28 14 74 11 12 0 20 3 17 7 -2 5 19 12 47
15 106 14 252 48 288 66 21 11 53 34 71 52 18 18 37 32 42 30 4 -1 6 2 3 7 -4
5 -1 21 6 36 14 31 25 18 32 -40z m-1875 -561 c12 -63 19 -119 16 -124 -3 -6
-2 -10 3 -10 5 0 12 -19 15 -42 4 -24 9 -58 13 -77 5 -25 4 -32 -5 -27 -6 4
-8 13 -5 19 5 8 3 8 -7 0 -15 -15 -33 -17 -25 -4 4 5 -4 7 -16 3 -13 -3 -19
-1 -15 5 5 7 -1 9 -15 5 -15 -4 -19 -2 -13 7 5 10 2 12 -11 7 -11 -3 -57 6
-104 20 -47 14 -119 35 -160 47 l-75 22 45 7 c25 3 78 7 118 7 41 1 72 5 72
11 0 6 -14 10 -31 10 -16 0 -28 3 -26 8 3 4 -63 4 -146 1 -105 -4 -161 -2
-182 6 -16 7 -54 18 -82 24 -29 7 -53 17 -53 23 0 5 -4 7 -9 4 -12 -8 -71 14
-71 25 0 5 -10 9 -22 10 -13 0 -32 4 -43 9 -14 6 -6 8 25 5 25 -2 108 -7 186
-11 121 -6 142 -5 147 9 8 22 -27 27 -264 37 -178 7 -214 12 -258 30 -29 13
-48 27 -44 33 3 6 1 7 -5 3 -7 -4 -20 -2 -29 3 -13 8 18 8 102 3 66 -4 181 -7
255 -6 158 1 654 15 658 19 2 2 11 1 21 -2 14 -4 23 -29 40 -119z"/>
<path d="M6455 12883 c-16 -2 -104 -7 -194 -11 l-165 -7 -8 -33 c-5 -20 -5
-58 0 -90 71 -422 120 -661 143 -689 17 -19 49 -16 136 13 64 22 96 27 178 27
55 0 120 -5 144 -11 54 -13 75 -4 90 39 14 40 13 246 -2 537 l-12 224 -140 2
c-77 2 -153 1 -170 -1z m250 -204 c0 -104 -9 -350 -18 -464 -2 -25 -7 -30 -37
-36 -46 -9 -330 -32 -335 -27 -2 2 -11 28 -19 58 -8 30 -26 99 -41 153 -14 54
-28 106 -30 115 -3 9 -15 60 -29 112 -13 52 -27 109 -29 126 l-5 31 187 6
c164 5 195 8 261 31 41 14 80 24 85 22 6 -2 10 -53 10 -127z"/>
<path d="M26785 12976 c-188 -30 -313 -96 -344 -179 -15 -39 -14 -186 2 -217
27 -54 191 -112 322 -113 36 -1 65 -3 65 -5 0 -2 -18 -30 -41 -63 -106 -156
-95 -295 31 -381 87 -60 152 -80 248 -79 346 4 729 406 649 682 -33 111 -130
180 -258 184 -67 2 -70 4 -92 36 -67 100 -369 170 -582 135z m261 -57 c118
-20 312 -98 299 -120 -3 -4 -20 -11 -38 -15 -52 -11 -137 -52 -217 -104 -74
-48 -77 -49 -175 -55 -160 -11 -332 18 -406 68 -25 17 -35 31 -37 56 -11 115
323 215 574 170z m467 -213 c18 -7 40 -23 50 -34 67 -75 -9 -265 -170 -425
-86 -84 -147 -129 -245 -177 -167 -82 -291 -57 -373 75 -61 99 45 271 255 410
203 135 386 193 483 151z"/>
<path d="M20915 11774 c-139 -18 -327 -61 -407 -92 -84 -32 -150 -80 -185
-134 -25 -37 -28 -50 -28 -127 1 -146 31 -174 221 -211 269 -52 572 -27 779
64 141 63 188 154 159 307 -16 85 -38 117 -101 151 -106 58 -232 70 -438 42z
m272 -49 c93 -21 172 -69 196 -117 17 -35 17 -39 1 -74 -24 -50 -76 -81 -204
-120 -180 -54 -266 -67 -420 -61 -107 4 -154 10 -223 31 -190 57 -230 105
-147 180 66 59 179 108 350 151 147 38 310 41 447 10z"/>
<path d="M25033 11406 c-54 -13 -113 -51 -138 -89 -20 -32 -55 -144 -55 -179
0 -79 66 -146 220 -227 183 -95 412 -156 559 -149 96 4 150 25 210 81 44 42
111 145 111 171 0 80 -68 168 -183 240 -159 99 -278 138 -481 155 -153 13
-176 13 -243 -3z m317 -46 c47 -6 107 -17 133 -25 111 -33 330 -163 375 -224
47 -64 41 -124 -16 -149 -28 -12 -65 -15 -157 -14 -201 3 -388 40 -570 114
-146 60 -199 97 -210 149 -13 56 52 129 131 148 55 13 213 13 314 1z"/>
<path d="M22589 11255 c-95 -15 -180 -49 -222 -89 -15 -14 -34 -26 -42 -26
-59 0 -376 -143 -506 -228 -128 -84 -218 -199 -219 -277 0 -36 78 -179 116
-212 31 -28 60 -29 229 -3 248 37 516 125 643 211 l42 29 83 -20 c113 -27 319
-50 455 -51 138 -1 203 17 267 73 59 52 125 182 125 247 0 44 -3 49 -76 118
-119 114 -186 160 -273 187 -167 53 -432 70 -622 41z m407 -49 c185 -31 332
-94 415 -178 87 -88 75 -137 -52 -200 -128 -65 -282 -81 -520 -58 -133 14
-206 32 -299 76 -96 45 -135 76 -160 124 -60 117 13 225 167 250 78 12 337 4
449 -14z m-699 -193 c-16 -81 -17 -105 -8 -141 15 -53 58 -103 111 -127 56
-25 41 -37 -95 -76 -207 -58 -318 -80 -435 -85 -99 -5 -120 -3 -150 13 -30 16
-35 23 -38 60 -4 52 15 90 77 156 87 93 269 199 451 263 52 19 98 34 101 34 3
0 -3 -44 -14 -97z"/>
<path d="M22208 9479 c-193 -28 -350 -105 -452 -221 -99 -113 -186 -340 -245
-639 -17 -85 -42 -210 -56 -278 -66 -318 -94 -581 -102 -956 -11 -554 32 -998
157 -1625 107 -537 322 -1292 473 -1662 124 -302 203 -443 446 -793 211 -304
331 -485 456 -685 222 -356 381 -582 544 -773 50 -58 75 -96 74 -110 -15 -170
-15 -167 -42 -174 -112 -27 -248 -177 -239 -266 3 -31 8 -34 120 -79 159 -65
356 -121 588 -168 303 -61 431 -75 695 -75 251 0 284 5 428 65 101 42 797 421
871 474 149 107 196 196 149 277 -22 37 -90 69 -148 69 -43 0 -45 1 -54 38
-96 355 -157 744 -192 1212 -16 219 -17 867 -1 1105 46 685 149 1344 307 1970
130 515 316 1073 412 1237 20 34 79 107 131 162 171 182 186 277 60 391 -144
132 -380 193 -578 151 -157 -33 -317 -136 -398 -256 -36 -54 -57 -73 -124
-112 -267 -156 -519 -168 -782 -37 -216 107 -380 271 -666 664 -267 367 -419
536 -646 717 -347 277 -828 430 -1186 377z m327 -168 c254 -38 475 -122 670
-255 115 -78 305 -267 365 -363 25 -40 72 -106 106 -148 34 -41 85 -114 115
-161 30 -48 78 -123 107 -167 28 -44 52 -82 52 -84 0 -1 -6 -3 -13 -3 -21 0
-74 43 -126 103 -72 83 -206 199 -398 349 -248 191 -289 219 -436 292 -231
114 -411 157 -534 127 -153 -37 -283 -115 -376 -226 -133 -159 -223 -447 -297
-955 -68 -465 -79 -1153 -25 -1590 23 -185 29 -219 95 -530 33 -157 70 -330
81 -385 35 -168 67 -286 103 -377 18 -47 57 -162 86 -255 97 -314 114 -350
440 -973 61 -118 137 -260 167 -315 31 -55 74 -134 96 -175 22 -41 43 -79 47
-85 9 -12 29 -50 138 -250 93 -172 135 -261 130 -275 -8 -24 -282 376 -458
670 -51 85 -122 202 -158 260 -59 94 -127 211 -207 355 -97 175 -169 329 -213
455 -28 80 -76 213 -107 295 -102 270 -194 582 -250 846 -65 309 -105 532
-110 616 -4 54 -15 150 -25 213 -114 689 -117 1348 -9 1987 58 347 117 521
234 698 84 127 205 228 336 281 119 49 184 53 374 25z m111 -1397 l51 -14 7
-107 c11 -197 97 -876 162 -1283 177 -1122 440 -2063 816 -2923 l91 -208 -36
-197 c-20 -108 -44 -248 -53 -311 -20 -136 -9 -143 -145 99 -703 1250 -1151
2679 -1264 4035 -21 253 -24 302 -31 512 l-7 192 43 56 c52 68 134 143 175
161 34 15 110 11 191 -12z m219 -98 c38 -24 133 -92 210 -151 l141 -108 27
-216 c94 -751 311 -1642 678 -2782 l82 -254 -17 -60 c-16 -58 -157 -611 -170
-669 -7 -28 -8 -27 -37 35 -219 461 -505 1294 -669 1949 -184 735 -276 1349
-315 2105 -3 61 -8 129 -11 153 -3 23 -2 42 3 41 4 0 39 -20 78 -43z m3172 9
c12 -33 -89 -148 -187 -214 -71 -49 -186 -111 -145 -80 103 79 224 223 254
302 9 24 12 25 41 15 18 -6 34 -16 37 -23z m40 -144 c-3 -27 -17 -67 -30 -88
-60 -94 -266 -251 -376 -287 -25 -9 -108 -26 -184 -39 -123 -21 -139 -22 -147
-8 -14 25 7 49 69 81 32 16 78 42 102 58 24 16 80 44 124 61 149 60 362 187
421 252 25 28 27 24 21 -30z m-3864 -263 c37 -457 103 -1047 148 -1327 76
-479 268 -1192 464 -1731 204 -559 488 -1163 778 -1653 l46 -78 -17 -144 c-9
-80 -19 -145 -22 -145 -9 0 -418 620 -515 780 -562 927 -893 1733 -1043 2545
-56 302 -76 504 -75 790 0 338 33 665 88 882 22 86 110 293 125 293 3 0 14
-96 23 -212z m1326 -123 l209 -170 17 -90 c113 -608 215 -1057 355 -1560 32
-115 72 -262 89 -326 l31 -117 -101 -303 c-56 -167 -103 -305 -104 -307 -3 -4
-94 254 -172 488 -300 908 -492 1768 -566 2533 -6 58 -33 75 242 -148z m2460
-288 c-11 -39 -53 -170 -94 -291 -124 -369 -248 -821 -328 -1191 -102 -468
-137 -679 -177 -1045 -11 -102 -29 -264 -41 -360 -19 -157 -21 -206 -15 -480
6 -337 25 -715 56 -1123 18 -237 30 -338 72 -616 11 -68 10 -75 -7 -87 -18
-13 -18 -14 3 -14 12 0 22 -3 23 -7 0 -5 2 -26 5 -49 l5 -40 -91 -43 c-131
-63 -119 -76 20 -22 69 26 70 26 68 -5 -3 -33 -2 -32 -148 -99 -133 -61 -136
-63 -129 -70 7 -7 106 21 176 50 73 29 77 30 66 10 -13 -23 -324 -205 -351
-205 -31 0 -69 40 -81 86 -11 46 -29 338 -36 619 -3 110 -7 282 -10 382 -3
101 -1 183 3 183 5 0 12 -96 15 -213 10 -326 50 -812 68 -832 11 -11 12 -37
-11 335 -32 512 -42 902 -31 1185 14 329 14 318 -4 311 -12 -4 -14 0 -11 17 3
12 8 81 11 152 14 285 36 510 69 705 112 656 173 983 241 1285 51 226 57 249
70 260 7 6 53 129 103 275 212 622 295 851 329 905 14 23 42 52 61 65 114 79
130 74 101 -33z m-2025 -58 c93 -63 195 -118 256 -138 l35 -11 23 -113 c38
-181 119 -545 173 -775 l50 -214 -37 -86 c-21 -48 -75 -179 -120 -291 l-82
-205 -37 115 c-87 276 -234 860 -310 1235 -37 187 -105 566 -105 589 0 4 15
-4 33 -19 17 -14 72 -53 121 -87z m1058 -211 c-16 -29 -57 -105 -92 -168 -126
-230 -117 -215 -123 -189 -7 28 -57 342 -57 357 0 5 35 13 78 16 42 4 104 13
137 20 92 20 90 21 57 -36z m-612 22 c25 -6 104 -13 176 -17 l132 -6 6 -36
c19 -105 56 -359 56 -382 0 -14 -46 -122 -103 -240 -57 -118 -112 -233 -122
-257 -10 -23 -22 -39 -26 -35 -19 21 -209 905 -209 974 0 15 5 18 23 14 12 -3
42 -9 67 -15z m950 -334 c0 -24 -47 -179 -150 -496 -54 -168 -115 -361 -136
-430 -20 -69 -47 -161 -61 -205 -13 -44 -47 -183 -74 -310 -89 -407 -105 -491
-184 -925 -109 -603 -163 -1266 -151 -1860 6 -343 17 -509 40 -625 8 -38 18
-91 21 -118 l7 -47 -71 0 c-85 0 -86 -15 -4 -25 32 -4 61 -9 66 -12 14 -8 -12
-40 -46 -56 -30 -15 -44 -14 -167 3 -160 24 -174 24 -164 8 4 -7 -12 -1 -37
14 -71 41 -84 88 -54 198 8 31 19 142 25 255 24 494 73 909 170 1440 48 263
175 788 258 1070 28 94 63 217 77 275 14 58 30 119 36 135 8 28 38 131 124
440 19 66 50 183 70 260 69 261 85 320 96 355 33 106 88 241 150 366 38 78 69
144 69 147 0 2 16 39 35 81 32 70 55 96 55 62z"/>
<path d="M15425 8753 c-153 -32 -308 -117 -432 -236 -208 -200 -284 -412 -284
-788 0 -155 3 -205 16 -374 l5 -60 -34 90 c-104 279 -297 562 -594 866 -182
188 -302 268 -456 304 -175 42 -349 -8 -471 -135 -76 -81 -118 -173 -149 -330
-31 -158 -54 -220 -115 -306 -45 -65 -53 -71 -131 -104 -240 -101 -387 -288
-445 -566 -21 -102 -21 -276 0 -376 66 -319 317 -591 627 -678 173 -49 375
-57 767 -30 90 6 165 9 167 7 2 -2 -26 -12 -63 -22 -280 -76 -548 -242 -899
-556 -188 -168 -294 -301 -346 -435 -78 -201 -47 -398 86 -542 80 -87 183
-137 341 -166 147 -27 218 -52 300 -107 75 -50 78 -54 120 -145 52 -112 92
-171 158 -236 91 -89 179 -140 317 -182 221 -67 456 -54 653 37 41 19 91 46
110 59 l37 25 58 -28 c58 -28 206 -69 250 -69 15 0 22 -6 22 -20 0 -21 -37
-197 -66 -316 l-17 -70 -86 -57 c-184 -121 -314 -255 -502 -519 -150 -210
-208 -328 -274 -559 -59 -207 -57 -332 7 -404 37 -43 78 -52 138 -29 25 9 74
20 110 24 136 14 252 103 435 330 183 228 248 349 376 700 64 176 67 182 65
128 -9 -188 66 -371 209 -514 134 -134 281 -193 449 -179 224 19 257 8 415
-140 61 -56 123 -104 158 -122 52 -25 68 -28 158 -28 90 0 106 3 160 29 160
79 247 239 289 536 49 339 40 590 -28 806 -14 42 -21 73 -17 68 5 -5 48 -74
96 -154 116 -192 166 -261 244 -344 85 -88 192 -159 295 -193 72 -24 97 -27
216 -27 122 0 143 2 215 28 221 76 409 272 455 475 9 37 10 84 5 150 -18 225
-8 254 134 407 60 64 103 120 124 163 30 61 32 73 32 166 0 89 -3 106 -28 156
-100 206 -352 298 -857 316 -180 6 -335 -9 -444 -41 -25 -8 -46 -13 -46 -11 0
1 55 35 122 76 323 195 468 358 514 579 22 103 14 280 -16 370 -61 183 -219
353 -397 428 -64 27 -166 42 -237 35 l-54 -6 -27 44 c-138 221 -355 368 -620
420 -78 15 -402 19 -600 6 l-120 -7 96 38 c198 79 388 198 600 376 407 339
539 531 539 782 0 162 -68 297 -197 390 -75 54 -148 81 -293 109 -124 24 -201
51 -267 95 -87 58 -85 56 -145 180 -39 80 -73 134 -112 177 -108 118 -268 204
-445 237 -103 20 -282 19 -376 -1z m147 -179 c35 -38 108 -140 108 -150 0 -4
-8 0 -17 7 -9 8 -14 9 -10 3 4 -7 -8 -15 -31 -22 -20 -6 -55 -21 -77 -32 l-40
-21 -32 38 c-18 21 -33 41 -33 46 0 12 -20 8 -20 -4 0 -6 13 -31 30 -55 l29
-44 -54 -57 c-30 -31 -55 -60 -55 -64 0 -3 -11 -18 -24 -32 l-24 -26 -25 32
c-22 27 -26 29 -32 15 -4 -11 2 -29 15 -48 22 -31 20 -40 -10 -70 -15 -15 -90
-165 -90 -180 0 -6 -4 -10 -10 -10 -5 0 -10 4 -10 8 0 5 -6 9 -13 9 -14 0 -15
-18 -3 -54 4 -14 -3 -53 -23 -110 -49 -147 -71 -225 -83 -295 -7 -38 -15 -68
-19 -68 -4 0 -15 19 -24 43 -21 54 -64 112 -62 82 1 -11 5 -22 9 -25 14 -11
57 -123 51 -133 -3 -6 -1 -7 5 -3 16 10 15 -6 -5 -166 -12 -96 -17 -211 -17
-412 -1 -239 -2 -274 -14 -246 -7 17 -14 48 -15 68 -1 21 -5 39 -8 42 -5 5
-32 221 -44 360 -13 147 -35 573 -35 675 0 240 44 416 143 574 57 90 99 137
202 225 49 42 145 89 230 112 44 13 86 23 92 23 7 1 27 -15 45 -35z m171 17
c114 -39 177 -91 236 -195 20 -36 41 -136 28 -136 -3 0 -36 32 -73 70 -79 82
-121 111 -164 112 -21 1 -37 9 -49 27 -11 14 -42 49 -69 77 -28 29 -48 55 -45
58 13 12 81 6 136 -13z m-2143 -212 c86 -26 141 -54 225 -114 100 -72 110 -80
215 -185 134 -133 173 -183 175 -222 2 -18 12 -53 25 -77 21 -43 74 -230 66
-238 -7 -7 -37 48 -31 58 4 5 2 8 -3 7 -13 -4 -123 162 -115 175 3 5 1 7 -4 4
-6 -4 -37 26 -69 65 -130 162 -297 300 -441 367 -29 13 -49 29 -46 34 3 6 1 7
-5 3 -6 -4 -38 7 -71 23 -136 69 -211 44 -281 -95 -14 -29 -19 -34 -20 -18 0
36 59 141 96 169 85 65 174 79 284 44z m-125 -246 c21 -43 40 -82 43 -87 3 -5
-15 -6 -41 -2 -26 4 -64 2 -88 -4 -54 -15 -87 -6 -95 25 -17 68 45 135 133
144 6 0 28 -34 48 -76z m65 58 c27 -10 84 -45 126 -77 42 -33 102 -78 133
-102 31 -24 59 -51 63 -60 5 -12 7 -13 7 -3 1 10 8 8 26 -9 21 -20 72 -146 62
-156 -2 -2 -37 25 -78 61 -52 45 -111 83 -196 126 -82 41 -124 68 -129 81 -3
12 -19 42 -34 69 -16 26 -26 50 -23 53 4 3 1 6 -6 6 -7 0 -10 4 -7 9 4 5 0 12
-6 14 -10 4 -10 6 -1 6 7 1 35 -8 63 -18z m3208 -274 c26 -8 75 -21 110 -27
34 -7 62 -18 62 -24 0 -14 -32 -64 -62 -96 -12 -14 -22 -24 -21 -22 4 9 -124
142 -137 142 -7 0 -50 73 -50 85 0 4 12 -4 26 -18 14 -14 47 -32 72 -40z m239
-94 c34 -40 57 -80 68 -123 5 -21 -2 -34 -36 -68 -22 -24 -58 -55 -78 -70 -20
-15 -47 -37 -61 -49 -35 -32 -43 -29 -34 15 4 20 8 72 9 115 1 67 4 81 22 95
11 10 24 27 27 39 4 11 13 27 21 33 8 7 15 21 15 31 0 27 9 24 47 -18z m-2701
-40 c21 -32 46 -70 56 -86 39 -57 168 -322 163 -335 -2 -7 -1 -10 4 -7 9 5 21
-20 28 -60 1 -11 7 -42 12 -70 6 -27 10 -70 10 -95 l0 -45 -19 39 c-11 21 -17
43 -13 49 3 5 1 7 -5 3 -6 -3 -14 4 -18 16 -4 13 -17 39 -29 58 -12 19 -20 41
-17 49 3 9 0 11 -8 6 -10 -6 -12 -4 -7 8 4 10 2 16 -5 14 -23 -4 -96 164 -125
288 -15 66 -28 123 -28 127 0 3 -3 9 -7 13 -4 4 -4 14 -1 23 4 9 2 13 -3 9 -6
-3 -15 7 -21 24 -17 43 -7 36 33 -28z m941 -286 c-9 -72 -20 -207 -23 -299 -4
-92 -10 -166 -13 -163 -8 4 -7 -42 3 -206 7 -107 6 -130 -8 -156 -19 -37 -29
-45 -49 -37 -20 7 -41 59 -33 79 3 9 2 13 -4 10 -11 -7 -12 279 -1 360 6 47 7
49 19 27 7 -12 10 -28 6 -34 -5 -7 -3 -8 6 -3 10 6 12 4 7 -8 -4 -11 -2 -14 9
-10 19 7 18 11 -10 69 l-24 51 18 108 c19 104 60 284 82 355 11 33 12 34 21
12 7 -15 5 -62 -6 -155z m1833 -7 c-21 -97 -39 -144 -83 -218 -38 -66 -51 -78
-147 -142 -57 -39 -112 -70 -121 -70 -9 0 -22 -7 -29 -14 -12 -16 -79 -42 -94
-38 -4 2 -15 -3 -23 -10 -9 -7 -1 12 18 42 18 30 38 58 43 62 6 4 8 8 4 8 -6
0 71 143 89 165 15 17 69 109 76 128 3 9 13 17 21 17 8 0 19 6 23 13 4 7 28
27 53 44 25 17 74 62 110 99 l65 69 3 -50 c2 -27 -2 -75 -8 -105z m-335 23
c-19 -69 -23 -86 -24 -95 -1 -10 -61 -40 -61 -31 0 5 -4 3 -8 -4 -9 -14 -62
-28 -62 -16 0 5 9 34 20 66 11 31 21 68 22 82 2 17 7 24 17 20 12 -5 12 -3 0
12 -9 11 -10 14 -1 9 6 -4 12 -3 12 3 0 5 10 13 23 17 12 4 33 16 47 26 l25
20 3 -25 c2 -14 -4 -51 -13 -84z m-3678 65 c-2 -7 -10 -12 -16 -10 -6 1 -11
-2 -11 -7 0 -5 -25 -28 -56 -51 -71 -54 -206 -189 -199 -200 5 -8 -111 -94
-126 -95 -3 0 -33 -27 -67 -61 -34 -33 -62 -59 -62 -56 0 2 12 27 27 56 65
123 175 235 318 325 39 24 86 54 105 66 73 47 95 55 87 33z m3592 -291 c-31
-52 -80 -128 -89 -137 -3 -3 -23 -27 -44 -55 -58 -73 -169 -176 -184 -170 -8
3 -10 0 -6 -7 5 -7 0 -9 -14 -6 -12 4 -20 2 -16 -3 3 -5 -1 -9 -10 -9 -8 0
-23 -3 -33 -7 -10 -3 20 34 67 83 100 104 134 148 179 227 18 31 37 55 42 52
5 -4 7 0 4 7 -7 20 6 34 55 55 77 33 83 29 49 -30z m-3670 -1 c-30 -68 -35
-146 -14 -222 l18 -66 -34 -30 c-45 -39 -79 -62 -84 -56 -2 2 -11 30 -20 63
-45 175 19 343 133 352 20 2 20 1 1 -41z m-231 -98 c-15 -81 -4 -233 21 -300
l22 -57 -54 -73 c-30 -40 -60 -84 -66 -98 l-12 -25 23 27 c13 14 38 45 56 67
18 23 38 39 43 35 5 -3 9 -2 8 3 -9 49 21 42 56 -15 51 -82 149 -175 228 -217
39 -21 74 -39 76 -41 3 -2 -32 -41 -76 -87 -44 -45 -83 -92 -87 -104 -7 -21
-8 -21 -44 -7 -132 52 -260 141 -331 230 -40 50 -98 154 -106 189 -2 11 -9 38
-14 60 -13 52 -14 160 -1 205 6 19 20 46 31 60 11 14 18 19 14 13 -9 -18 0
-16 16 4 10 11 10 14 2 9 -26 -15 -12 8 34 55 51 52 142 122 128 98 -5 -8 -1
-7 11 4 29 27 32 21 22 -35z m4112 -93 c-7 -8 -19 -15 -26 -15 -7 0 -11 -6 -8
-13 6 -18 -31 -51 -47 -41 -8 5 -10 3 -4 -6 5 -8 -8 -26 -36 -53 -56 -51 -147
-125 -194 -157 -20 -14 -42 -30 -48 -35 -14 -13 -183 -118 -214 -134 -12 -6
-44 -12 -71 -14 -28 -1 -48 -5 -46 -9 3 -4 -4 -6 -13 -6 -10 1 -29 -2 -43 -6
-14 -4 -2 6 26 21 101 58 211 140 296 222 60 57 92 81 103 77 9 -3 14 -2 11 3
-3 5 1 12 10 15 10 4 13 2 8 -7 -4 -6 1 -5 12 4 34 29 123 68 144 64 11 -2 18
0 15 6 -4 5 -12 6 -18 3 -7 -4 -9 -4 -6 0 7 8 152 96 158 96 2 0 -2 -7 -9 -15z
m-3796 -230 c71 -88 161 -170 218 -200 57 -30 65 -48 25 -61 -42 -15 -146 6
-213 42 -72 39 -118 80 -169 155 l-48 70 24 26 c13 14 39 32 57 39 17 8 32 20
32 27 1 6 8 -1 17 -18 9 -16 34 -52 57 -80z m2991 -333 c-154 -62 -265 -93
-339 -98 -51 -3 -57 -2 -46 11 7 9 15 13 18 10 3 -3 10 -1 16 4 15 12 213 73
251 77 17 2 36 6 43 9 8 3 10 0 6 -7 -5 -8 -3 -8 7 -2 15 10 125 41 149 42 8
1 -39 -20 -105 -46z m-2760 -77 c28 -8 106 -21 175 -30 69 -9 132 -19 140 -22
8 -3 32 -6 52 -8 55 -5 63 -13 37 -41 -34 -36 -17 -38 26 -4 42 34 39 33 155
20 47 -5 149 -10 227 -12 l143 -2 -25 -26 c-23 -24 -33 -50 -20 -50 3 0 28 18
56 40 45 35 57 40 104 40 75 0 201 -20 221 -35 14 -10 3 -13 -62 -18 -43 -3
-160 -18 -259 -32 -194 -28 -517 -46 -850 -47 -160 0 -204 3 -280 21 -49 12
-99 23 -109 24 -11 1 -21 7 -23 13 -2 6 39 52 91 102 105 100 95 96 201 67z
m3255 -264 c25 -4 39 -9 32 -10 -7 0 -33 -15 -57 -31 l-44 -30 -103 15 c-156
24 -400 34 -571 24 -197 -11 -207 -11 -207 1 0 14 43 29 110 40 68 11 778 4
840 -9z m273 -117 c13 -5 12 -13 -6 -57 -12 -29 -26 -55 -32 -59 -5 -4 -6 -8
-2 -8 13 0 -20 -30 -33 -30 -6 0 -31 -20 -55 -45 l-45 -44 0 33 c0 18 3 35 6
38 3 3 7 36 8 72 4 70 15 92 49 99 35 7 94 7 110 1z m-438 -46 c5 -5 -48 -134
-59 -145 -2 -2 -54 10 -117 26 -166 42 -261 60 -374 69 l-100 8 55 27 55 27
267 -3 c147 -2 270 -6 273 -9z m265 0 c0 -7 -5 -33 -11 -58 -6 -25 -11 -75
-10 -112 0 -60 -5 -79 -46 -165 -26 -54 -47 -102 -49 -108 -1 -5 -18 -44 -38
-85 -38 -78 -37 -78 -40 5 -1 11 -5 26 -10 33 -4 8 -11 61 -14 118 -4 87 -2
111 13 144 10 22 22 37 26 34 5 -3 7 1 4 8 -7 19 33 80 47 72 7 -5 8 -3 3 5
-5 9 12 32 50 67 57 54 75 64 75 42z m-1786 -273 c23 -183 23 -572 0 -632 -10
-24 -21 -40 -27 -36 -6 4 -8 0 -4 -9 3 -9 -1 -37 -9 -64 -17 -56 -18 -189 -3
-265 12 -62 -4 -156 -22 -128 -7 9 -7 5 -3 -15 5 -20 4 -27 -4 -22 -8 5 -10 2
-6 -8 3 -9 1 -16 -5 -16 -6 0 -11 -7 -11 -16 0 -9 -5 -12 -12 -8 -7 4 -8 3 -4
-5 9 -14 -81 -110 -103 -111 -8 0 -11 -3 -8 -7 9 -9 -13 -34 -24 -27 -5 3 -6
-1 -3 -9 3 -8 -3 -20 -13 -28 -17 -13 -17 -13 -3 6 14 19 14 19 -3 6 -9 -8
-16 -16 -13 -18 2 -3 -10 -32 -28 -66 -31 -59 -33 -67 -34 -176 0 -85 3 -118
14 -128 8 -8 14 -17 14 -21 -1 -14 -74 -43 -154 -62 -219 -53 -373 -3 -568
184 -65 61 -86 95 -52 82 9 -3 24 -6 35 -6 11 0 39 -18 63 -40 52 -48 83 -54
37 -6 l-32 33 78 2 c43 1 118 11 168 23 101 23 151 28 148 13 -1 -5 12 -11 28
-12 16 -1 29 2 29 8 0 6 -4 8 -9 5 -8 -6 -48 31 -40 38 2 2 20 11 39 21 49 25
131 93 170 142 19 23 37 40 42 37 4 -3 6 1 3 8 -3 7 -1 19 4 27 7 11 13 11 32
1 13 -7 26 -17 29 -21 3 -4 11 -4 19 0 9 6 3 14 -23 30 -37 23 -37 25 -5 88
10 20 19 43 19 50 0 7 4 13 8 13 4 0 8 8 9 18 0 9 23 81 51 159 83 235 115
403 132 703 6 101 13 186 15 189 2 2 0 12 -5 22 -8 14 -6 19 12 25 19 6 19 7
5 16 -14 7 -17 25 -16 106 1 89 2 94 14 67 7 -16 20 -88 29 -160z m2900 -89
c46 -21 91 -58 135 -112 14 -16 12 -17 -16 -11 -16 3 -54 9 -84 13 -30 3 -58
12 -64 19 -20 24 -76 45 -149 57 -78 12 -85 21 -32 44 51 22 149 18 210 -10z
m-1329 -225 c8 -46 11 -89 8 -94 -11 -18 -18 -109 -18 -236 l0 -123 -19 43
c-10 24 -23 47 -29 50 -5 4 -7 14 -4 24 5 10 3 14 -4 9 -15 -9 -5 385 11 441
6 22 12 51 14 65 7 62 9 60 18 -15 5 -44 15 -118 23 -164z m226 144 c1 -11
-12 -51 -30 -89 -33 -69 -80 -235 -82 -285 0 -24 -1 -24 -14 9 -18 46 -18 63
-2 54 8 -6 8 -3 -1 9 -11 13 -11 27 -2 74 21 106 42 173 53 166 6 -4 7 -1 3 6
-9 14 12 71 25 71 5 0 8 3 7 8 -1 4 2 18 7 32 l8 25 13 -30 c6 -16 13 -39 15
-50z m-3296 -48 c-67 -49 -164 -139 -201 -184 -73 -90 -79 -97 -101 -120 -12
-12 -42 -27 -67 -34 -55 -14 -62 -33 -9 -23 l37 7 -16 -24 c-43 -61 -110 -180
-124 -222 -8 -25 -14 -67 -12 -93 3 -43 0 -51 -22 -66 l-25 -17 28 2 c25 2 29
-3 51 -66 14 -38 32 -79 41 -93 9 -13 13 -30 9 -36 -4 -6 -3 -8 3 -5 6 4 21
-5 34 -20 24 -25 24 -26 2 -14 -13 6 -23 9 -23 7 0 -14 -85 28 -136 67 -81 62
-99 83 -124 147 -62 156 33 341 265 517 44 34 98 78 120 98 64 60 258 195 280
194 17 0 16 -3 -10 -22z m219 5 c-12 -9 -33 -26 -46 -37 -61 -48 -145 -134
-231 -233 -22 -26 -35 -32 -67 -32 -22 0 -40 4 -40 8 0 15 164 170 230 218 36
26 79 58 95 70 17 13 41 23 55 23 l25 0 -21 -17z m4348 -46 c52 -78 72 -258
43 -377 -26 -108 -96 -246 -117 -233 -6 4 -8 2 -4 -4 15 -25 -182 -203 -289
-261 -48 -25 -78 -44 -85 -52 -7 -8 -109 -69 -116 -69 -2 0 -10 -5 -17 -10
-26 -22 -228 -139 -318 -185 -96 -48 -169 -78 -176 -71 -5 4 41 35 59 38 7 2
15 6 18 9 3 4 43 32 90 64 121 82 143 99 250 191 92 78 99 82 168 94 40 8 75
17 78 22 7 11 -31 10 -81 -2 -22 -5 -41 -8 -42 -6 -1 1 20 27 48 57 28 29 78
90 111 134 37 49 72 85 91 94 27 11 30 15 16 24 -14 9 -13 15 10 56 14 25 35
67 47 94 11 27 24 48 27 48 36 -4 67 1 62 9 -3 6 -19 10 -34 10 l-28 0 23 88
22 87 46 -1 c32 0 46 4 46 13 0 9 -15 13 -45 13 -42 0 -45 2 -47 28 -2 36 -3
42 -16 75 -7 16 -12 33 -12 39 0 14 163 -1 172 -16z m-2247 -156 c89 -46 161
-108 250 -220 33 -41 65 -81 72 -87 30 -33 197 -264 193 -268 -3 -2 3 -10 12
-17 16 -12 57 -74 115 -175 28 -49 45 -103 33 -103 -7 0 -75 106 -120 187 -8
15 -20 32 -26 38 -6 5 -17 21 -26 35 -49 79 -208 257 -292 326 -31 25 -53 51
-49 57 3 6 1 7 -6 3 -6 -4 -30 8 -54 27 -23 19 -57 42 -75 51 -18 9 -30 21
-27 26 4 6 -1 7 -11 3 -12 -4 -15 -3 -10 5 4 8 2 10 -8 6 -8 -3 -28 2 -46 11
-22 12 -58 16 -119 16 -223 0 -379 -142 -415 -379 -11 -72 -15 -82 -21 -59
-13 49 17 233 36 221 5 -3 6 2 3 10 -7 18 29 89 74 144 101 125 211 181 357
182 74 0 86 -3 160 -40z m-2461 -142 c-5 -9 -2 -8 9 1 29 23 27 8 -5 -39 -33
-48 -98 -182 -117 -241 -12 -36 -26 -46 -89 -64 -20 -6 -22 -4 -18 21 9 47 47
134 99 224 53 93 69 110 105 110 16 0 21 -4 16 -12z m2398 -50 c94 -32 197
-117 331 -271 101 -115 223 -302 231 -352 l7 -40 -27 35 c-36 46 -157 167
-215 216 -25 22 -72 62 -104 89 -32 28 -64 54 -71 58 -8 4 -14 15 -14 22 0 8
-5 15 -11 15 -6 0 -40 21 -75 46 -75 53 -165 93 -210 94 -17 0 -57 -13 -88
-29 -45 -22 -59 -26 -63 -15 -14 36 96 144 132 130 9 -3 13 -2 10 3 -5 9 23
17 77 20 16 0 56 -9 90 -21z m-1034 -172 c-5 -17 -14 -48 -20 -68 -6 -22 -15
-35 -21 -31 -6 3 -7 1 -3 -5 4 -6 -2 -39 -13 -74 -11 -35 -30 -96 -42 -136
-12 -40 -27 -75 -32 -79 -6 -3 -23 8 -39 26 -27 31 -28 34 -14 54 25 35 101
198 136 291 28 74 34 84 45 69 9 -12 10 -26 3 -47z m2872 -94 c0 -19 -233
-268 -253 -270 -44 -6 -77 -16 -77 -24 0 -6 11 -7 27 -3 24 6 25 4 13 -10 -19
-23 -189 -149 -227 -169 -69 -35 -117 -8 -72 40 27 29 157 110 185 116 11 2
18 9 17 16 -2 6 7 17 20 23 12 7 27 18 32 24 6 7 55 46 110 88 55 42 125 98
155 126 53 49 70 60 70 43z m-3080 -297 c14 -19 14 -19 -5 -5 -19 14 -19 14
-6 -2 7 -10 18 -15 23 -12 5 3 18 -2 28 -11 18 -16 18 -19 3 -44 -30 -48 -109
-118 -182 -161 -58 -34 -74 -40 -86 -30 -8 6 -13 16 -12 20 1 4 -1 7 -4 7 -13
-4 -40 27 -35 40 3 8 2 11 -4 8 -5 -3 -14 3 -19 14 -10 18 -5 21 52 40 85 29
156 71 197 118 19 22 35 39 35 39 1 -1 7 -10 15 -21z m-501 -149 c15 -27 55
-39 101 -30 19 4 36 1 47 -7 14 -12 16 -12 9 1 -4 8 10 -5 33 -29 22 -24 37
-49 34 -54 -3 -6 -1 -7 5 -3 6 3 13 2 16 -3 14 -21 -163 -66 -213 -54 -87 21
-129 115 -80 177 25 32 32 32 48 2z m4061 -96 c0 -5 -3 -9 -7 -8 -5 0 -17 -2
-28 -7 -167 -67 -191 -73 -335 -85 -79 -6 -149 -14 -155 -17 -5 -2 -1 3 10 12
27 23 132 74 153 74 9 1 69 10 132 20 129 21 230 26 230 11z m272 -5 c236 -36
405 -114 481 -224 28 -40 32 -54 32 -111 0 -51 -5 -73 -24 -103 -28 -46 -37
-43 -16 6 34 81 15 122 -81 182 -201 126 -386 174 -673 176 l-126 1 43 19 c23
11 73 27 110 35 37 9 74 19 82 24 22 13 59 12 172 -5z m-3437 -17 c2 -7 6 -34
9 -60 5 -46 26 -94 65 -153 27 -40 27 -42 -14 -56 -51 -19 -43 -28 16 -16 48
9 52 8 92 -22 23 -17 65 -43 94 -58 l52 -27 -57 -27 c-66 -32 -50 -37 30 -11
31 10 62 17 69 16 8 -2 44 -12 82 -23 37 -11 99 -23 137 -27 39 -4 67 -11 64
-16 -3 -5 -13 -7 -21 -4 -9 4 -11 2 -7 -6 5 -8 2 -9 -9 -5 -9 3 -16 2 -14 -3
1 -5 -7 -16 -18 -25 l-20 -17 20 7 c11 4 34 11 50 15 17 4 26 8 20 9 -5 1 7
10 28 21 27 15 57 20 114 21 43 0 108 3 145 8 44 4 72 3 79 -3 9 -8 10 -7 5 2
-5 8 1 12 20 12 15 0 25 -1 23 -3 -33 -26 -71 -48 -65 -38 7 10 4 11 -13 1
-12 -6 -25 -18 -28 -26 -3 -7 -10 -11 -16 -7 -6 3 -7 1 -3 -5 11 -18 25 -15
101 24 39 20 111 47 162 60 50 13 100 27 110 30 37 11 -144 -79 -216 -108 -41
-16 -126 -41 -190 -55 -101 -23 -139 -27 -291 -27 -209 -1 -298 17 -447 90
-219 108 -301 280 -216 457 32 64 49 81 58 55z m3542 -173 c52 -16 89 -33 86
-38 -3 -6 -1 -7 4 -4 22 14 163 -53 163 -76 0 -5 -3 -6 -7 -4 -5 3 -39 -1 -76
-9 -64 -13 -69 -13 -88 5 -33 30 -145 80 -232 104 l-80 21 59 17 c32 10 64 16
69 15 6 -2 51 -16 102 -31z m-3185 -62 c36 -27 74 -53 84 -60 18 -12 18 -12
-3 -19 -13 -3 -23 -10 -23 -14 0 -4 -12 -6 -27 -5 -29 2 -84 31 -141 75 l-33
25 28 22 c15 13 33 23 38 23 6 0 40 -21 77 -47z m3478 -123 c12 -46 0 -83 -37
-107 -19 -13 -24 -12 -43 7 -13 13 -20 29 -17 41 3 13 -2 23 -15 30 -11 6 -17
17 -14 25 3 8 2 12 -3 9 -5 -3 -12 -1 -16 5 -3 5 7 12 22 16 15 3 33 7 38 9 6
2 24 4 42 4 29 1 33 -3 43 -39z m-1671 -87 c16 -16 48 -52 70 -82 35 -47 41
-62 41 -105 1 -47 2 -49 15 -32 8 10 12 24 8 30 -13 23 16 -11 77 -94 35 -47
84 -109 109 -139 38 -44 45 -59 43 -90 -2 -34 -2 -35 11 -13 11 20 15 21 31 9
11 -8 16 -19 12 -26 -4 -6 -3 -10 2 -9 5 2 59 -48 120 -109 61 -62 116 -113
121 -113 15 0 14 -41 -5 -143 l-16 -88 -82 83 c-45 46 -102 112 -127 148 -53
79 -169 259 -169 264 0 2 -24 39 -53 82 -29 44 -93 158 -141 254 -48 96 -93
181 -98 188 -18 22 0 13 31 -15z m-373 5 c4 -6 3 -8 -4 -4 -5 3 -12 3 -14 -2
-5 -13 -98 -72 -114 -72 -7 0 -14 -4 -14 -10 0 -5 -35 -35 -77 -66 -43 -31
-115 -88 -159 -125 -45 -37 -84 -66 -88 -64 -3 3 -4 2 -1 -1 2 -4 -28 -42 -68
-84 -71 -76 -218 -273 -251 -337 -9 -18 -18 -33 -20 -33 -13 0 -35 13 -32 19
3 4 -4 7 -14 7 -27 0 -20 -19 13 -33 27 -12 27 -14 14 -40 -23 -45 -39 -134
-36 -196 l4 -58 -30 6 -30 5 32 -16 c24 -13 36 -29 48 -68 18 -53 51 -121 86
-173 l21 -33 -64 5 c-34 2 -52 2 -38 -1 14 -3 32 -8 40 -11 8 -3 30 -7 47 -10
31 -3 89 -48 75 -57 -8 -5 -64 7 -152 31 -103 28 -195 96 -257 190 -56 84 -79
264 -48 369 19 65 81 155 158 226 53 51 97 85 296 226 135 97 315 211 324 205
6 -3 7 -1 3 5 -6 10 99 92 118 91 5 0 12 4 15 10 5 8 189 106 208 111 1 0 5
-5 9 -12z m-906 -267 c-36 -16 -123 -56 -193 -89 l-128 -61 2 84 2 84 151 4
c83 1 169 3 191 4 40 2 40 2 -25 -26z m2729 -326 c1 -121 -17 -212 -58 -294
-35 -68 -45 -78 -29 -28 5 17 10 73 10 122 0 50 4 95 9 101 13 16 39 169 39
230 0 28 3 54 8 58 10 11 20 -74 21 -189z m-135 0 c7 -38 -17 -87 -65 -129
-43 -40 -112 -78 -147 -82 -20 -2 -23 1 -18 19 3 12 6 36 6 54 0 28 4 33 47
47 69 24 111 56 135 104 23 45 32 42 42 -13z m-570 -60 c11 -8 25 -15 32 -15
7 0 25 -5 41 -11 35 -15 46 -16 161 -25 l92 -7 0 -37 c0 -53 -18 -72 -71 -73
-99 -3 -186 33 -256 104 -58 58 -56 107 1 64z m604 -208 c-5 -33 -11 -64 -15
-70 -4 -7 -8 -14 -8 -17 -4 -26 -23 -60 -50 -87 -39 -38 -112 -76 -127 -67 -6
4 -8 3 -5 -3 10 -16 -71 -33 -153 -33 -80 0 -163 17 -154 32 4 6 -2 7 -16 3
-14 -5 -20 -3 -16 3 3 6 -1 8 -11 6 -10 -2 -45 13 -78 35 l-61 39 21 105 c18
95 22 104 38 95 10 -5 16 -12 13 -16 -2 -4 6 -8 17 -8 12 -1 42 -9 66 -18 52
-20 184 -38 216 -30 22 5 22 4 14 -39 -4 -25 -15 -62 -24 -83 -8 -20 -13 -39
-10 -42 6 -6 40 74 55 126 9 37 13 40 72 56 70 19 138 59 183 106 l30 32 5
-34 c3 -18 2 -59 -2 -91z m-2377 -28 c-11 -56 -2 -191 12 -206 4 -3 7 -15 7
-26 0 -17 -5 -19 -37 -13 -21 4 -45 8 -53 8 -25 2 -30 19 -30 105 0 58 5 94
19 126 19 43 21 45 53 38 28 -6 32 -11 29 -32z m1045 -342 c-9 -250 -22 -357
-50 -430 -37 -98 -88 -168 -115 -159 -9 3 -11 0 -6 -8 6 -10 2 -12 -13 -8 -14
4 -20 2 -15 -5 4 -6 0 -8 -10 -4 -9 3 -19 2 -22 -3 -18 -29 -178 11 -235 59
l-32 26 56 -3 c34 -2 75 2 103 12 37 13 48 13 55 4 6 -9 10 -7 14 10 4 12 12
22 20 22 38 0 153 176 154 238 1 11 6 8 16 -11 22 -40 29 -26 15 26 -11 38
-10 53 13 133 27 96 42 191 38 239 -2 25 -1 27 8 12 8 -11 10 -63 6 -150z
m-1049 73 c26 0 36 -6 48 -30 9 -17 13 -35 10 -41 -4 -5 -3 -9 2 -8 4 1 15 -1
23 -4 8 -3 24 -7 34 -9 11 -2 21 -8 23 -14 7 -21 -41 -64 -77 -70 -30 -5 -40
-1 -63 22 -29 29 -60 88 -73 138 -6 27 -5 29 17 23 13 -4 39 -7 56 -7z m865
-310 c-27 -52 -55 -94 -61 -93 -5 2 -8 -3 -5 -10 2 -7 -4 -22 -16 -32 -23 -21
-22 -21 -36 20 -9 26 -6 36 23 76 18 26 49 82 69 124 l36 77 20 -33 20 -33
-50 -96z"/>
<path d="M8003 8650 c-272 -110 -660 -299 -888 -433 -80 -46 -90 -56 -93 -84
-3 -28 7 -40 110 -133 62 -56 132 -111 155 -122 40 -17 45 -18 80 -3 l38 17
63 -69 c350 -378 620 -872 770 -1408 85 -303 101 -458 72 -705 -95 -787 -570
-1480 -1235 -1801 -218 -106 -445 -167 -698 -190 -331 -29 -795 67 -1142 236
-272 133 -449 283 -603 511 -125 186 -302 627 -328 819 -16 119 -18 392 -4
536 75 743 370 1447 833 1986 l71 81 35 -19 c30 -16 38 -17 56 -5 17 12 20 26
23 107 4 107 -15 281 -32 302 -6 8 -63 32 -126 52 -133 44 -405 145 -634 236
l-159 63 -52 -56 c-116 -124 -369 -426 -464 -552 -442 -588 -774 -1322 -924
-2041 -110 -521 -122 -1079 -36 -1535 106 -557 343 -1059 695 -1469 582 -678
1415 -1091 2384 -1181 149 -14 561 -14 715 0 1008 91 1891 552 2473 1291 186
236 346 525 460 830 337 901 251 2015 -237 3099 -186 412 -469 857 -760 1195
-116 135 -407 436 -443 458 -41 24 -92 21 -175 -13z m141 -20 c29 -11 18 -1
191 -185 72 -77 164 -176 206 -220 126 -132 179 -199 307 -390 479 -714 787
-1557 862 -2365 18 -186 15 -548 -5 -715 -75 -638 -279 -1150 -646 -1625 -91
-118 -330 -363 -460 -472 -423 -353 -957 -605 -1539 -723 -337 -69 -774 -93
-1106 -61 -1235 119 -2228 758 -2732 1761 -218 434 -325 872 -339 1391 -25
925 286 1935 862 2799 163 244 272 378 459 565 l166 164 42 -16 c46 -18 716
-269 784 -294 36 -13 42 -19 48 -52 7 -47 8 -222 0 -222 -3 0 -26 9 -52 19
-132 55 -569 164 -540 135 3 -3 69 -27 147 -53 78 -26 144 -51 147 -54 4 -3
-2 -17 -12 -30 -11 -14 -62 -80 -115 -148 -112 -145 -242 -329 -231 -329 4 1
34 38 67 83 79 109 231 300 286 360 42 47 45 48 72 36 30 -14 34 -24 13 -32
-32 -12 -263 -307 -327 -417 -20 -33 -19 -33 21 10 23 25 95 110 160 190 113
140 180 210 200 210 21 0 7 -21 -103 -152 -62 -74 -146 -181 -187 -237 -77
-104 -210 -317 -210 -336 1 -14 17 10 73 107 74 129 255 362 397 511 30 32 59
65 63 72 6 12 13 12 42 -2 l34 -16 -92 -97 c-638 -672 -1004 -1765 -882 -2638
96 -687 459 -1241 1027 -1571 228 -132 476 -215 763 -256 137 -20 453 -19 597
1 959 133 1663 863 1793 1857 17 136 20 484 5 622 -84 752 -420 1497 -906
2007 -72 77 -73 78 -51 93 12 8 27 15 34 15 30 0 290 -322 403 -500 73 -115
92 -132 40 -35 -78 144 -208 327 -338 474 l-74 84 38 23 c66 39 69 41 63 48
-3 3 -39 -9 -80 -28 -122 -56 -147 -63 -164 -46 -12 13 0 22 103 69 323 151
590 287 580 297 -5 4 -144 -57 -386 -170 -90 -42 -167 -76 -170 -76 -4 0 37
25 92 55 107 59 112 62 104 71 -5 4 -113 -40 -332 -139 l-80 -36 -27 20 c-15
10 -49 39 -75 63 l-49 44 25 20 c85 69 410 240 730 385 203 92 216 96 264 77z
m-414 -4496 c0 -13 -64 -97 -117 -155 -31 -33 -91 -88 -132 -122 -42 -34 -78
-64 -81 -67 -14 -16 -156 -103 -225 -137 -334 -166 -866 -226 -1260 -143 -134
29 -146 33 -136 48 7 12 31 11 142 -4 184 -25 503 -25 652 -1 465 78 776 227
1052 506 69 70 105 96 105 75z"/>
<path d="M8005 8558 c-70 -24 -537 -261 -615 -312 -47 -30 -79 -56 -72 -56 7
0 115 54 241 121 262 138 427 209 486 209 49 0 104 -35 225 -144 47 -42 123
-110 169 -151 46 -42 86 -73 88 -71 3 3 -28 35 -68 73 -39 37 -97 100 -128
138 -89 113 -131 153 -184 180 -54 26 -93 30 -142 13z"/>
<path d="M4363 8464 c-61 -30 -438 -432 -421 -449 3 -3 38 32 79 77 112 124
156 168 253 257 96 87 109 92 181 67 118 -41 158 -24 53 23 -87 39 -108 42
-145 25z"/>
<path d="M4425 8232 c18 -19 172 -61 317 -87 191 -35 289 -61 371 -96 87 -39
97 -32 96 60 -1 97 -17 135 -18 46 -2 -95 -5 -99 -66 -76 -58 22 -189 51 -365
82 -69 12 -163 33 -210 46 -116 34 -137 38 -125 25z"/>
<path d="M8590 8088 c0 -5 31 -50 68 -100 136 -184 234 -343 334 -540 27 -54
53 -98 59 -98 13 0 13 0 -36 111 -58 131 -163 308 -260 437 -79 105 -164 203
-165 190z"/>
<path d="M7780 8033 c0 -5 36 -44 81 -88 93 -93 254 -278 339 -391 l58 -78
-28 -41 c-70 -103 -78 -225 -21 -340 36 -73 82 -117 161 -154 46 -22 69 -26
144 -26 l89 0 32 -60 c70 -133 180 -399 246 -594 38 -113 69 -213 69 -222 0
-9 -14 -20 -34 -26 -41 -13 -29 -34 -112 207 -58 171 -124 334 -131 327 -2 -3
14 -51 36 -109 61 -161 130 -369 136 -413 6 -37 4 -41 -29 -62 -85 -54 -156
-192 -156 -302 0 -54 19 -132 45 -180 49 -96 171 -179 279 -189 l49 -5 -6
-166 c-4 -91 -10 -193 -13 -225 -5 -41 -4 -57 4 -53 18 12 35 148 36 299 1
119 4 148 15 148 22 0 9 -438 -18 -595 -33 -195 -82 -382 -133 -507 -23 -56
-32 -60 -66 -32 -2 1 3 15 11 31 47 93 147 443 127 443 -5 0 -12 -15 -16 -32
-16 -75 -87 -277 -121 -346 l-36 -74 -36 9 c-20 4 -72 8 -116 7 -64 0 -91 -5
-135 -26 -81 -37 -144 -98 -182 -176 -31 -62 -33 -74 -33 -167 0 -89 3 -106
27 -156 27 -54 105 -141 147 -163 l20 -11 -22 -28 -22 -28 -29 30 c-15 16 -50
71 -78 123 -46 87 -49 90 -43 51 8 -61 47 -144 89 -190 35 -39 35 -41 17 -57
-18 -16 -20 -15 -49 21 -83 106 -126 236 -126 386 0 74 -3 101 -9 85 -15 -39
-11 -198 8 -267 20 -77 61 -161 109 -224 l35 -46 -97 -88 c-123 -111 -240
-202 -367 -286 -103 -67 -323 -187 -343 -187 -25 0 -11 36 19 49 66 29 198
105 305 177 108 71 230 172 220 181 -3 3 -62 -35 -133 -83 -70 -49 -157 -106
-193 -128 -63 -37 -235 -126 -244 -126 -2 0 -10 16 -16 35 -16 48 -98 135
-157 167 -166 90 -374 39 -477 -116 -103 -155 -83 -352 48 -480 189 -184 507
-113 596 133 19 50 26 58 64 74 50 21 156 86 156 96 0 4 -39 -13 -87 -36 -49
-24 -93 -43 -99 -43 -7 0 -9 12 -5 34 6 32 13 37 169 116 275 139 486 292 699
507 l122 123 51 -11 c60 -13 122 -6 200 24 66 24 155 109 187 178 59 125 45
283 -34 387 l-24 32 35 88 c115 292 186 649 186 944 l0 78 69 45 c100 66 178
146 212 219 16 33 29 68 29 76 0 8 -17 -19 -37 -60 -42 -87 -107 -154 -197
-205 -35 -19 -66 -35 -69 -35 -17 0 -5 30 16 41 28 15 167 149 167 162 0 5
-26 -13 -57 -41 -32 -27 -72 -57 -90 -66 -53 -27 -51 -18 2 13 210 120 245
412 70 586 -55 55 -98 80 -174 98 -46 10 -50 14 -56 47 -4 19 -35 121 -70 225
-65 195 -141 378 -228 544 -54 104 -55 87 11 161 36 41 25 44 -22 6 -56 -47
-68 -46 -16 0 22 20 52 61 67 92 24 49 28 69 28 147 0 106 -19 157 -85 229
-76 82 -213 126 -311 98 l-37 -10 -49 72 c-57 81 -170 205 -216 238 -20 14 -3
-10 42 -59 71 -79 171 -206 190 -241 7 -14 3 -21 -19 -34 l-28 -16 -54 66
c-70 87 -272 288 -380 380 -83 70 -98 80 -98 65z m822 -503 c48 -14 79 -75 85
-169 7 -96 -22 -169 -96 -242 -69 -67 -124 -89 -228 -89 -61 0 -76 3 -94 21
-67 67 -85 210 -38 310 24 51 85 119 127 143 61 35 170 46 244 26z m559 -1557
c87 -34 124 -232 67 -355 -35 -76 -99 -143 -173 -181 -54 -29 -69 -32 -150
-32 -114 0 -136 12 -177 100 -37 80 -45 152 -25 228 44 167 196 275 367 260
30 -3 71 -12 91 -20z m-311 -1854 c56 -31 67 -41 77 -75 47 -157 -40 -336
-202 -411 -51 -24 -73 -28 -145 -28 -74 0 -92 4 -145 30 -52 26 -62 36 -77 75
-48 127 5 299 118 380 78 56 128 71 224 67 76 -3 93 -7 150 -38z m-1476 -1088
c35 -17 79 -48 96 -68 32 -36 32 -38 28 -118 -5 -100 -38 -174 -107 -238 -69
-64 -130 -90 -226 -95 -92 -5 -161 16 -233 69 -63 46 -79 129 -46 240 62 207
292 307 488 210z"/>
<path d="M4639 7873 c-65 -66 -226 -245 -255 -282 -1 -1 -13 7 -26 19 -39 37
-137 81 -191 86 -58 5 -61 8 58 -46 58 -26 130 -78 121 -87 -2 -2 -31 10 -65
27 -78 39 -208 70 -291 69 -103 -1 -117 -15 -23 -23 98 -8 214 -36 294 -72 61
-28 68 -37 45 -67 -13 -17 -17 -16 -61 17 -130 99 -319 83 -433 -38 -114 -120
-124 -311 -23 -436 l30 -37 -26 -37 c-29 -44 -76 -146 -69 -153 2 -2 18 22 35
54 46 85 74 118 93 107 13 -8 3 -34 -63 -174 -83 -176 -175 -398 -167 -405 2
-2 24 44 48 103 52 129 138 304 188 383 33 52 58 70 74 53 4 -3 -27 -74 -68
-157 -103 -211 -179 -410 -268 -702 -12 -39 -14 -40 -68 -47 -118 -15 -233
-100 -284 -210 -26 -56 -29 -74 -29 -158 0 -83 4 -103 28 -155 34 -74 102
-145 168 -175 l49 -23 0 -146 c0 -347 51 -660 156 -961 l44 -128 -30 -49 c-93
-151 -71 -333 54 -459 80 -80 147 -107 267 -108 l86 -1 124 -125 c201 -203
396 -347 644 -475 l130 -68 6 -81 c10 -142 87 -254 217 -314 48 -22 71 -27
147 -27 77 0 98 4 147 27 128 60 208 176 216 317 6 97 -13 167 -65 241 -79
112 -221 175 -349 153 -123 -21 -217 -88 -273 -192 -29 -55 -34 -60 -52 -50
-15 7 -18 16 -13 32 18 61 91 155 152 195 40 26 15 26 -30 -1 -52 -31 -85 -65
-132 -137 -48 -73 -46 -51 3 30 22 36 37 67 35 69 -5 5 -48 -43 -81 -91 -14
-21 -28 -38 -31 -38 -26 0 -289 191 -410 298 -134 119 -290 287 -278 299 3 3
63 -50 133 -118 71 -68 155 -145 188 -170 157 -119 223 -149 83 -37 -75 60
-251 231 -326 318 l-30 35 29 36 c106 135 116 311 25 454 -41 63 -84 100 -156
134 -47 22 -69 26 -148 26 l-92 0 -19 50 c-10 28 -27 77 -37 110 -22 73 -38
96 -28 40 6 -36 36 -151 51 -197 3 -10 1 -18 -4 -18 -11 0 -115 307 -144 425
-21 85 -39 129 -39 93 0 -56 77 -377 119 -495 24 -66 8 -70 -20 -5 -92 215
-170 572 -173 792 l-1 104 54 8 c50 8 151 53 151 68 0 4 -28 1 -62 -6 -35 -8
-84 -14 -110 -14 -39 0 -48 3 -48 18 0 13 20 22 83 40 45 12 114 38 152 56 75
36 169 111 159 128 -4 5 -20 -3 -38 -20 -44 -43 -133 -97 -189 -116 -26 -9
-75 -16 -107 -16 -57 0 -60 1 -60 24 0 22 4 24 68 28 167 9 307 140 330 308
18 124 -22 246 -106 328 -46 44 -128 92 -158 92 -22 0 -16 37 36 210 63 206
164 461 252 634 l24 47 70 2 c57 2 84 9 137 35 98 49 154 124 178 237 14 71 2
146 -35 220 l-23 45 50 68 c84 111 231 283 306 357 67 65 81 85 63 85 -4 0
-46 -39 -93 -87z m-488 -344 c31 -10 41 -19 57 -58 68 -162 4 -334 -154 -412
-52 -26 -77 -32 -133 -33 -83 0 -109 14 -142 81 -20 39 -24 63 -24 133 0 72 4
93 27 136 68 129 227 195 369 153z m-439 -1556 c28 -11 40 -25 56 -61 31 -74
35 -92 34 -162 -1 -135 -76 -251 -200 -312 -60 -30 -75 -33 -154 -33 -105 0
-128 14 -173 100 -26 52 -30 69 -30 144 0 77 3 93 33 153 78 160 271 236 434
171z m364 -1834 c31 -12 70 -34 88 -49 31 -28 31 -29 31 -127 0 -91 -2 -103
-33 -165 -38 -77 -91 -128 -172 -167 -47 -22 -68 -26 -145 -26 -78 1 -98 4
-147 28 -71 35 -91 76 -91 190 0 66 5 86 32 142 20 39 50 80 79 106 46 40 58
47 132 75 55 21 160 17 226 -7z m1369 -1094 c62 -27 123 -73 141 -107 23 -45
14 -148 -19 -221 -32 -71 -102 -141 -175 -175 -49 -23 -70 -27 -152 -27 -85 0
-101 3 -152 29 -31 16 -69 42 -85 58 -27 28 -28 34 -28 126 0 86 3 103 28 150
47 89 134 158 231 183 46 12 165 3 211 -16z"/>
<path d="M3360 6080 c-168 -47 -297 -249 -275 -427 9 -71 33 -153 45 -153 13
0 13 2 -6 67 -11 37 -15 82 -12 137 2 68 9 93 36 148 38 78 116 155 200 197
54 27 61 45 12 31z"/>
<path d="M9127 3813 c-4 -3 -7 -32 -7 -63 0 -177 -115 -329 -298 -396 -62 -22
-64 -24 -25 -20 100 10 240 111 296 214 32 58 57 151 57 207 0 42 -11 70 -23
58z"/>
<path d="M6756 2973 c-102 -154 -55 -464 93 -625 27 -29 52 -50 56 -46 4 3
-17 37 -46 75 -87 114 -139 252 -139 373 0 57 25 176 43 204 16 25 28 56 22
56 -3 0 -16 -17 -29 -37z"/>
<path d="M5790 2745 c-1 -154 -46 -273 -139 -365 -63 -62 -133 -103 -224 -131
l-62 -19 55 5 c77 7 192 65 255 130 97 98 154 250 142 372 -9 86 -27 91 -27 8z"/>
</g>
</svg>
